<mxfile host="65bd71144e">
    <diagram id="qlJxrSub912xycT6AVFl" name="Page-1">
        <mxGraphModel dx="7510" dy="3325" grid="1" gridSize="10" guides="1" tooltips="1" connect="1" arrows="1" fold="1" page="1" pageScale="1" pageWidth="850" pageHeight="1100" math="0" shadow="0">
            <root>
                <mxCell id="0"/>
                <mxCell id="1" parent="0"/>
                <mxCell id="11" style="edgeStyle=none;html=1;exitX=0.5;exitY=1;exitDx=0;exitDy=0;entryX=0.5;entryY=0;entryDx=0;entryDy=0;" parent="1" source="9" target="10" edge="1">
                    <mxGeometry relative="1" as="geometry"/>
                </mxCell>
                <mxCell id="9" value="Start" style="ellipse;whiteSpace=wrap;html=1;" parent="1" vertex="1">
                    <mxGeometry x="115" y="80" width="120" height="80" as="geometry"/>
                </mxCell>
                <mxCell id="13" value="" style="edgeStyle=none;html=1;" parent="1" source="10" target="12" edge="1">
                    <mxGeometry relative="1" as="geometry"/>
                </mxCell>
                <mxCell id="10" value="Print&amp;nbsp;&lt;span style=&quot;color: rgb(206, 145, 120); font-family: Consolas, &amp;quot;Courier New&amp;quot;, monospace; font-size: 14px;&quot;&gt;&quot;Welcome to Grade Converter!&quot;&lt;/span&gt;" style="shape=parallelogram;perimeter=parallelogramPerimeter;whiteSpace=wrap;html=1;fixedSize=1;align=center;" parent="1" vertex="1">
                    <mxGeometry x="75" y="180" width="200" height="60" as="geometry"/>
                </mxCell>
                <mxCell id="16" value="" style="edgeStyle=none;html=1;" parent="1" source="12" target="15" edge="1">
                    <mxGeometry relative="1" as="geometry"/>
                </mxCell>
                <mxCell id="12" value="Print &lt;span style=&quot;color: rgb(206, 145, 120); font-family: Consolas, &amp;quot;Courier New&amp;quot;, monospace; font-size: 14px;&quot;&gt;&quot;Please write the numerical grade you want to convert:&quot;&lt;/span&gt;" style="shape=parallelogram;perimeter=parallelogramPerimeter;whiteSpace=wrap;html=1;fixedSize=1;" parent="1" vertex="1">
                    <mxGeometry x="35" y="260" width="280" height="60" as="geometry"/>
                </mxCell>
                <mxCell id="18" value="" style="edgeStyle=none;html=1;" parent="1" source="15" target="17" edge="1">
                    <mxGeometry relative="1" as="geometry"/>
                </mxCell>
                <mxCell id="15" value="Print&lt;br&gt;&lt;span style=&quot;color: rgb(206, 145, 120); font-family: Consolas, &amp;quot;Courier New&amp;quot;, monospace; font-size: 14px;&quot;&gt;&quot;(Grades go from 0 to 100)&quot;&lt;/span&gt;" style="shape=parallelogram;perimeter=parallelogramPerimeter;whiteSpace=wrap;html=1;fixedSize=1;" parent="1" vertex="1">
                    <mxGeometry x="35" y="340" width="280" height="60" as="geometry"/>
                </mxCell>
                <mxCell id="20" value="" style="edgeStyle=none;html=1;" parent="1" source="17" target="19" edge="1">
                    <mxGeometry relative="1" as="geometry"/>
                </mxCell>
                <mxCell id="17" value="Read&amp;nbsp;&lt;span style=&quot;color: rgb(156, 220, 254); font-family: Consolas, &amp;quot;Courier New&amp;quot;, monospace; font-size: 14px;&quot;&gt;grade&lt;/span&gt;" style="shape=parallelogram;perimeter=parallelogramPerimeter;whiteSpace=wrap;html=1;fixedSize=1;" parent="1" vertex="1">
                    <mxGeometry x="75" y="420" width="200" height="60" as="geometry"/>
                </mxCell>
                <mxCell id="21" value="" style="edgeStyle=none;html=1;exitX=0;exitY=0.5;exitDx=0;exitDy=0;fontColor=#FFFFFF;entryX=0.5;entryY=0;entryDx=0;entryDy=0;" parent="1" source="19" target="22" edge="1">
                    <mxGeometry relative="1" as="geometry">
                        <mxPoint x="-130" y="640" as="targetPoint"/>
                        <Array as="points">
                            <mxPoint x="-40" y="575"/>
                        </Array>
                    </mxGeometry>
                </mxCell>
                <mxCell id="24" value="False" style="edgeLabel;html=1;align=center;verticalAlign=middle;resizable=0;points=[];fontColor=#FFFFFF;" parent="21" vertex="1" connectable="0">
                    <mxGeometry x="-0.2" y="-1" relative="1" as="geometry">
                        <mxPoint as="offset"/>
                    </mxGeometry>
                </mxCell>
                <mxCell id="28" style="edgeStyle=none;html=1;exitX=1;exitY=0.5;exitDx=0;exitDy=0;entryX=0.5;entryY=0;entryDx=0;entryDy=0;fontColor=#FFFFFF;" parent="1" source="19" target="25" edge="1">
                    <mxGeometry relative="1" as="geometry">
                        <mxPoint x="420" y="630" as="targetPoint"/>
                        <Array as="points">
                            <mxPoint x="420" y="575"/>
                        </Array>
                    </mxGeometry>
                </mxCell>
                <mxCell id="37" value="True" style="edgeLabel;html=1;align=center;verticalAlign=middle;resizable=0;points=[];fontColor=#FFFFFF;" parent="28" vertex="1" connectable="0">
                    <mxGeometry x="-0.1378" y="-1" relative="1" as="geometry">
                        <mxPoint x="3" y="-1" as="offset"/>
                    </mxGeometry>
                </mxCell>
                <mxCell id="19" value="&lt;div style=&quot;font-family: Consolas, &amp;quot;Courier New&amp;quot;, monospace; font-size: 14px; line-height: 19px;&quot;&gt;&lt;div style=&quot;line-height: 19px;&quot;&gt;&lt;span style=&quot;color: rgb(156, 220, 254);&quot;&gt;grade&lt;/span&gt; &lt;span style=&quot;color: rgb(212, 212, 212);&quot;&gt;&amp;lt;=&lt;/span&gt; &lt;span style=&quot;color: rgb(181, 206, 168);&quot;&gt;100&lt;/span&gt; &lt;span style=&quot;color: rgb(212, 212, 212);&quot;&gt;&amp;amp;&amp;amp;&lt;/span&gt; &lt;span style=&quot;color: rgb(156, 220, 254);&quot;&gt;grade&lt;/span&gt; &lt;span style=&quot;color: rgb(212, 212, 212);&quot;&gt;&amp;gt;=&lt;/span&gt; &lt;span style=&quot;color: rgb(181, 206, 168);&quot;&gt;0 &lt;/span&gt;&lt;font style=&quot;&quot; color=&quot;#ffffff&quot;&gt;?&lt;/font&gt;&lt;/div&gt;&lt;/div&gt;" style="rhombus;whiteSpace=wrap;html=1;align=center;fontColor=default;" parent="1" vertex="1">
                    <mxGeometry x="100" y="500" width="150" height="150" as="geometry"/>
                </mxCell>
                <mxCell id="256" style="edgeStyle=none;html=1;exitX=0.5;exitY=1;exitDx=0;exitDy=0;entryX=0;entryY=0.5;entryDx=0;entryDy=0;" edge="1" parent="1" source="22" target="231">
                    <mxGeometry relative="1" as="geometry">
                        <mxPoint x="-1160" y="3210" as="targetPoint"/>
                        <Array as="points">
                            <mxPoint x="-40" y="760"/>
                            <mxPoint x="-1660" y="760"/>
                            <mxPoint x="-1660" y="3240"/>
                        </Array>
                    </mxGeometry>
                </mxCell>
                <mxCell id="22" value="Print&amp;nbsp;&lt;span style=&quot;color: rgb(206, 145, 120); font-family: Consolas, &amp;quot;Courier New&amp;quot;, monospace; font-size: 14px;&quot;&gt;&quot;ERROR! That's not a valid grade&quot;&lt;/span&gt;" style="shape=parallelogram;perimeter=parallelogramPerimeter;whiteSpace=wrap;html=1;fixedSize=1;labelBackgroundColor=none;fontColor=#FFFFFF;" parent="1" vertex="1">
                    <mxGeometry x="-150" y="640" width="220" height="60" as="geometry"/>
                </mxCell>
                <mxCell id="30" value="" style="edgeStyle=none;html=1;fontColor=#FFFFFF;exitX=0.5;exitY=1;exitDx=0;exitDy=0;entryX=0.5;entryY=0;entryDx=0;entryDy=0;" parent="1" source="25" target="29" edge="1">
                    <mxGeometry relative="1" as="geometry">
                        <mxPoint x="420" y="710" as="sourcePoint"/>
                    </mxGeometry>
                </mxCell>
                <mxCell id="25" value="Print&lt;br&gt;&lt;span style=&quot;color: rgb(206, 145, 120); font-family: Consolas, &amp;quot;Courier New&amp;quot;, monospace; font-size: 14px;&quot;&gt;&quot;Thanks! Now, please select the system you want to convert it to&quot;&lt;/span&gt;" style="shape=parallelogram;perimeter=parallelogramPerimeter;whiteSpace=wrap;html=1;fixedSize=1;labelBackgroundColor=none;fontColor=#FFFFFF;" parent="1" vertex="1">
                    <mxGeometry x="280" y="630" width="280" height="80" as="geometry"/>
                </mxCell>
                <mxCell id="32" value="" style="edgeStyle=none;html=1;fontColor=#FFFFFF;entryX=0.5;entryY=0;entryDx=0;entryDy=0;exitX=0.5;exitY=1;exitDx=0;exitDy=0;" parent="1" source="29" target="31" edge="1">
                    <mxGeometry relative="1" as="geometry"/>
                </mxCell>
                <mxCell id="29" value="Print&amp;nbsp;&lt;span style=&quot;color: rgb(206, 145, 120); font-family: Consolas, &amp;quot;Courier New&amp;quot;, monospace; font-size: 14px;&quot;&gt;&quot;1- Alphabet system&quot;&lt;/span&gt;" style="shape=parallelogram;perimeter=parallelogramPerimeter;whiteSpace=wrap;html=1;fixedSize=1;labelBackgroundColor=none;fontColor=#FFFFFF;" parent="1" vertex="1">
                    <mxGeometry x="305" y="730" width="230" height="50" as="geometry"/>
                </mxCell>
                <mxCell id="34" value="" style="edgeStyle=none;html=1;fontColor=#FFFFFF;entryX=0.5;entryY=0;entryDx=0;entryDy=0;exitX=0.5;exitY=1;exitDx=0;exitDy=0;" parent="1" source="31" target="33" edge="1">
                    <mxGeometry relative="1" as="geometry">
                        <mxPoint x="420" y="850" as="sourcePoint"/>
                    </mxGeometry>
                </mxCell>
                <mxCell id="31" value="Print&amp;nbsp;&lt;span style=&quot;color: rgb(206, 145, 120); font-family: Consolas, &amp;quot;Courier New&amp;quot;, monospace; font-size: 14px;&quot;&gt;&quot;2- Spanish system&quot;&lt;/span&gt;" style="shape=parallelogram;perimeter=parallelogramPerimeter;whiteSpace=wrap;html=1;fixedSize=1;labelBackgroundColor=none;fontColor=#FFFFFF;" parent="1" vertex="1">
                    <mxGeometry x="305" y="800" width="230" height="50" as="geometry"/>
                </mxCell>
                <mxCell id="36" value="" style="edgeStyle=none;html=1;fontColor=#FFFFFF;entryX=0.5;entryY=0;entryDx=0;entryDy=0;exitX=0.5;exitY=1;exitDx=0;exitDy=0;" parent="1" source="33" target="35" edge="1">
                    <mxGeometry relative="1" as="geometry">
                        <mxPoint x="420" y="920" as="sourcePoint"/>
                    </mxGeometry>
                </mxCell>
                <mxCell id="33" value="Read&amp;nbsp;&lt;span style=&quot;color: rgb(156, 220, 254); background-color: rgb(31, 31, 31); font-family: Consolas, &amp;quot;Courier New&amp;quot;, monospace; font-size: 14px;&quot;&gt;system&lt;/span&gt;" style="shape=parallelogram;perimeter=parallelogramPerimeter;whiteSpace=wrap;html=1;fixedSize=1;labelBackgroundColor=none;fontColor=#FFFFFF;" parent="1" vertex="1">
                    <mxGeometry x="342.5" y="870" width="155" height="50" as="geometry"/>
                </mxCell>
                <mxCell id="40" value="" style="edgeStyle=none;html=1;fontColor=#FFFFFF;entryX=0.5;entryY=0;entryDx=0;entryDy=0;exitX=0;exitY=0.5;exitDx=0;exitDy=0;" parent="1" source="35" target="39" edge="1">
                    <mxGeometry relative="1" as="geometry">
                        <Array as="points">
                            <mxPoint x="-200" y="995"/>
                        </Array>
                    </mxGeometry>
                </mxCell>
                <mxCell id="41" value="False" style="edgeLabel;html=1;align=center;verticalAlign=middle;resizable=0;points=[];fontColor=#FFFFFF;" parent="40" vertex="1" connectable="0">
                    <mxGeometry x="-0.2471" y="-1" relative="1" as="geometry">
                        <mxPoint x="-10" y="1" as="offset"/>
                    </mxGeometry>
                </mxCell>
                <mxCell id="59" style="edgeStyle=none;html=1;exitX=1;exitY=0.5;exitDx=0;exitDy=0;entryX=0.5;entryY=0;entryDx=0;entryDy=0;fontColor=#FFFFFF;" parent="1" source="35" target="57" edge="1">
                    <mxGeometry relative="1" as="geometry">
                        <Array as="points">
                            <mxPoint x="1153" y="1000"/>
                        </Array>
                    </mxGeometry>
                </mxCell>
                <mxCell id="60" value="True" style="edgeLabel;html=1;align=center;verticalAlign=middle;resizable=0;points=[];fontColor=#FFFFFF;" parent="59" vertex="1" connectable="0">
                    <mxGeometry x="-0.2391" y="-1" relative="1" as="geometry">
                        <mxPoint x="85" y="-3" as="offset"/>
                    </mxGeometry>
                </mxCell>
                <mxCell id="35" value="&lt;div style=&quot;font-family: Consolas, &amp;quot;Courier New&amp;quot;, monospace; font-size: 14px; line-height: 19px;&quot;&gt;&lt;span style=&quot;color: rgb(156, 220, 254);&quot;&gt;system&lt;/span&gt; &lt;span style=&quot;color: rgb(212, 212, 212);&quot;&gt;==&lt;/span&gt; &lt;span style=&quot;color: rgb(181, 206, 168);&quot;&gt;1&lt;/span&gt;?&lt;/div&gt;" style="rhombus;whiteSpace=wrap;html=1;fontColor=#FFFFFF;labelBackgroundColor=none;" parent="1" vertex="1">
                    <mxGeometry x="365" y="940" width="110" height="110" as="geometry"/>
                </mxCell>
                <mxCell id="46" value="" style="edgeStyle=none;html=1;fontColor=#FFFFFF;entryX=0.5;entryY=0;entryDx=0;entryDy=0;exitX=0;exitY=0.5;exitDx=0;exitDy=0;" parent="1" source="39" target="45" edge="1">
                    <mxGeometry relative="1" as="geometry">
                        <Array as="points">
                            <mxPoint x="-300" y="1110"/>
                        </Array>
                    </mxGeometry>
                </mxCell>
                <mxCell id="47" value="False" style="edgeLabel;html=1;align=center;verticalAlign=middle;resizable=0;points=[];fontColor=#FFFFFF;" parent="46" vertex="1" connectable="0">
                    <mxGeometry x="-0.4" y="1" relative="1" as="geometry">
                        <mxPoint x="14" y="-5" as="offset"/>
                    </mxGeometry>
                </mxCell>
                <mxCell id="49" value="" style="edgeStyle=none;html=1;fontColor=#FFFFFF;entryX=0.5;entryY=0;entryDx=0;entryDy=0;exitX=1;exitY=0.5;exitDx=0;exitDy=0;" parent="1" source="39" target="48" edge="1">
                    <mxGeometry relative="1" as="geometry">
                        <Array as="points">
                            <mxPoint x="-70" y="1105"/>
                        </Array>
                    </mxGeometry>
                </mxCell>
                <mxCell id="50" value="True" style="edgeLabel;html=1;align=center;verticalAlign=middle;resizable=0;points=[];fontColor=#FFFFFF;" parent="49" vertex="1" connectable="0">
                    <mxGeometry x="-0.4" relative="1" as="geometry">
                        <mxPoint x="-8" as="offset"/>
                    </mxGeometry>
                </mxCell>
                <mxCell id="39" value="&lt;div style=&quot;font-family: Consolas, &amp;quot;Courier New&amp;quot;, monospace; font-size: 14px; line-height: 19px;&quot;&gt;&lt;span style=&quot;color: rgb(156, 220, 254);&quot;&gt;system&lt;/span&gt; &lt;span style=&quot;color: rgb(212, 212, 212);&quot;&gt;==&lt;/span&gt;&amp;nbsp;&lt;font color=&quot;#b5cea8&quot;&gt;2&lt;/font&gt;?&lt;/div&gt;" style="rhombus;whiteSpace=wrap;html=1;fontColor=#FFFFFF;labelBackgroundColor=none;" parent="1" vertex="1">
                    <mxGeometry x="-255" y="1050" width="110" height="110" as="geometry"/>
                </mxCell>
                <mxCell id="245" style="edgeStyle=none;html=1;exitX=0.5;exitY=1;exitDx=0;exitDy=0;entryX=0;entryY=0.5;entryDx=0;entryDy=0;" edge="1" parent="1" source="45" target="231">
                    <mxGeometry relative="1" as="geometry">
                        <Array as="points">
                            <mxPoint x="-300" y="1290"/>
                            <mxPoint x="-1620" y="1290"/>
                            <mxPoint x="-1620" y="3240"/>
                        </Array>
                    </mxGeometry>
                </mxCell>
                <mxCell id="45" value="Print&lt;br&gt;&lt;span style=&quot;color: rgb(206, 145, 120); font-family: Consolas, &amp;quot;Courier New&amp;quot;, monospace; font-size: 14px;&quot;&gt;&quot;ERROR! That's not a valid system&quot;&lt;/span&gt;" style="shape=parallelogram;perimeter=parallelogramPerimeter;whiteSpace=wrap;html=1;fixedSize=1;fontColor=#FFFFFF;labelBackgroundColor=none;" parent="1" vertex="1">
                    <mxGeometry x="-400" y="1180" width="200" height="80" as="geometry"/>
                </mxCell>
                <mxCell id="53" value="" style="edgeStyle=none;html=1;fontColor=#FFFFFF;entryX=0.5;entryY=0;entryDx=0;entryDy=0;exitX=0.5;exitY=1;exitDx=0;exitDy=0;" parent="1" source="48" target="52" edge="1">
                    <mxGeometry relative="1" as="geometry"/>
                </mxCell>
                <mxCell id="48" value="Print&lt;br&gt;&lt;span style=&quot;color: rgb(206, 145, 120); font-family: Consolas, &amp;quot;Courier New&amp;quot;, monospace; font-size: 14px;&quot;&gt;&quot;Spanish system selected&quot;&lt;/span&gt;" style="shape=parallelogram;perimeter=parallelogramPerimeter;whiteSpace=wrap;html=1;fixedSize=1;fontColor=#FFFFFF;labelBackgroundColor=none;" parent="1" vertex="1">
                    <mxGeometry x="-145" y="1180" width="150" height="60" as="geometry"/>
                </mxCell>
                <mxCell id="63" value="" style="edgeStyle=none;html=1;fontColor=#FFFFFF;entryX=0.5;entryY=0;entryDx=0;entryDy=0;exitX=0.5;exitY=1;exitDx=0;exitDy=0;" parent="1" source="52" target="62" edge="1">
                    <mxGeometry relative="1" as="geometry"/>
                </mxCell>
                <mxCell id="52" value="Print&lt;br&gt;&lt;div style=&quot;color: rgb(204, 204, 204); font-family: Consolas, &amp;quot;Courier New&amp;quot;, monospace; font-size: 14px; line-height: 19px;&quot;&gt;&lt;span style=&quot;color: rgb(206, 145, 120);&quot;&gt;&quot;The grade is equivalent to: &quot;&lt;/span&gt;&lt;/div&gt;" style="shape=parallelogram;perimeter=parallelogramPerimeter;whiteSpace=wrap;html=1;fixedSize=1;fontColor=#FFFFFF;labelBackgroundColor=none;" parent="1" vertex="1">
                    <mxGeometry x="-152.5" y="1260" width="165" height="60" as="geometry"/>
                </mxCell>
                <mxCell id="56" value="" style="edgeStyle=none;html=1;fontColor=#FFFFFF;exitX=0.5;exitY=1;exitDx=0;exitDy=0;" parent="1" source="57" target="58" edge="1">
                    <mxGeometry relative="1" as="geometry"/>
                </mxCell>
                <mxCell id="57" value="Print&lt;br&gt;&lt;span style=&quot;color: rgb(206, 145, 120); font-family: Consolas, &amp;quot;Courier New&amp;quot;, monospace; font-size: 14px;&quot;&gt;&quot;Alphabet system selected&quot;&lt;/span&gt;" style="shape=parallelogram;perimeter=parallelogramPerimeter;whiteSpace=wrap;html=1;fixedSize=1;fontColor=#FFFFFF;labelBackgroundColor=none;" parent="1" vertex="1">
                    <mxGeometry x="1077.5" y="1040" width="150" height="60" as="geometry"/>
                </mxCell>
                <mxCell id="210" style="edgeStyle=none;html=1;exitX=0.5;exitY=1;exitDx=0;exitDy=0;entryX=0.5;entryY=0;entryDx=0;entryDy=0;" edge="1" parent="1" source="58" target="168">
                    <mxGeometry relative="1" as="geometry"/>
                </mxCell>
                <mxCell id="58" value="Print&lt;br&gt;&lt;div style=&quot;color: rgb(204, 204, 204); font-family: Consolas, &amp;quot;Courier New&amp;quot;, monospace; font-size: 14px; line-height: 19px;&quot;&gt;&lt;span style=&quot;color: rgb(206, 145, 120);&quot;&gt;&quot;The grade is equivalent to: &quot;&lt;/span&gt;&lt;/div&gt;" style="shape=parallelogram;perimeter=parallelogramPerimeter;whiteSpace=wrap;html=1;fixedSize=1;fontColor=#FFFFFF;labelBackgroundColor=none;" parent="1" vertex="1">
                    <mxGeometry x="1070" y="1125" width="165" height="60" as="geometry"/>
                </mxCell>
                <mxCell id="65" value="" style="edgeStyle=none;html=1;fontColor=#FFFFFF;exitX=0;exitY=0.5;exitDx=0;exitDy=0;entryX=0.5;entryY=0;entryDx=0;entryDy=0;" parent="1" source="62" target="64" edge="1">
                    <mxGeometry relative="1" as="geometry">
                        <Array as="points">
                            <mxPoint x="-300" y="1415"/>
                        </Array>
                    </mxGeometry>
                </mxCell>
                <mxCell id="66" value="False" style="edgeLabel;html=1;align=center;verticalAlign=middle;resizable=0;points=[];fontColor=#FFFFFF;" parent="65" vertex="1" connectable="0">
                    <mxGeometry x="-0.2017" y="-2" relative="1" as="geometry">
                        <mxPoint x="12" y="2" as="offset"/>
                    </mxGeometry>
                </mxCell>
                <mxCell id="68" value="" style="edgeStyle=none;html=1;fontColor=#FFFFFF;entryX=0.5;entryY=0;entryDx=0;entryDy=0;exitX=1;exitY=0.5;exitDx=0;exitDy=0;" parent="1" source="62" target="67" edge="1">
                    <mxGeometry relative="1" as="geometry">
                        <Array as="points">
                            <mxPoint x="135" y="1415"/>
                        </Array>
                    </mxGeometry>
                </mxCell>
                <mxCell id="69" value="True" style="edgeLabel;html=1;align=center;verticalAlign=middle;resizable=0;points=[];fontColor=#FFFFFF;" parent="68" vertex="1" connectable="0">
                    <mxGeometry x="-0.586" y="-1" relative="1" as="geometry">
                        <mxPoint x="15" y="-1" as="offset"/>
                    </mxGeometry>
                </mxCell>
                <mxCell id="62" value="&lt;span style=&quot;font-family: Consolas, &amp;quot;Courier New&amp;quot;, monospace; font-size: 14px; color: rgb(156, 220, 254);&quot;&gt;grade&lt;/span&gt;&lt;span style=&quot;color: rgb(204, 204, 204); font-family: Consolas, &amp;quot;Courier New&amp;quot;, monospace; font-size: 14px;&quot;&gt; &lt;/span&gt;&lt;span style=&quot;font-family: Consolas, &amp;quot;Courier New&amp;quot;, monospace; font-size: 14px; color: rgb(212, 212, 212);&quot;&gt;&amp;lt;=&lt;/span&gt;&lt;span style=&quot;color: rgb(204, 204, 204); font-family: Consolas, &amp;quot;Courier New&amp;quot;, monospace; font-size: 14px;&quot;&gt; &lt;/span&gt;&lt;span style=&quot;font-family: Consolas, &amp;quot;Courier New&amp;quot;, monospace; font-size: 14px; color: rgb(181, 206, 168);&quot;&gt;100&lt;/span&gt;&lt;span style=&quot;color: rgb(204, 204, 204); font-family: Consolas, &amp;quot;Courier New&amp;quot;, monospace; font-size: 14px;&quot;&gt; &lt;/span&gt;&lt;span style=&quot;font-family: Consolas, &amp;quot;Courier New&amp;quot;, monospace; font-size: 14px; color: rgb(212, 212, 212);&quot;&gt;&amp;amp;&amp;amp;&lt;/span&gt;&lt;span style=&quot;color: rgb(204, 204, 204); font-family: Consolas, &amp;quot;Courier New&amp;quot;, monospace; font-size: 14px;&quot;&gt; &lt;/span&gt;&lt;span style=&quot;font-family: Consolas, &amp;quot;Courier New&amp;quot;, monospace; font-size: 14px; color: rgb(156, 220, 254);&quot;&gt;grade&lt;/span&gt;&lt;span style=&quot;color: rgb(204, 204, 204); font-family: Consolas, &amp;quot;Courier New&amp;quot;, monospace; font-size: 14px;&quot;&gt; &lt;/span&gt;&lt;span style=&quot;font-family: Consolas, &amp;quot;Courier New&amp;quot;, monospace; font-size: 14px; color: rgb(212, 212, 212);&quot;&gt;&amp;gt;&lt;/span&gt;&lt;span style=&quot;color: rgb(204, 204, 204); font-family: Consolas, &amp;quot;Courier New&amp;quot;, monospace; font-size: 14px;&quot;&gt; &lt;/span&gt;&lt;span style=&quot;font-family: Consolas, &amp;quot;Courier New&amp;quot;, monospace; font-size: 14px; color: rgb(181, 206, 168);&quot;&gt;92&lt;/span&gt;?" style="rhombus;whiteSpace=wrap;html=1;fontColor=#FFFFFF;labelBackgroundColor=none;" parent="1" vertex="1">
                    <mxGeometry x="-145" y="1340" width="150" height="150" as="geometry"/>
                </mxCell>
                <mxCell id="71" value="" style="edgeStyle=none;html=1;fontColor=#FFFFFF;exitX=0;exitY=0.5;exitDx=0;exitDy=0;entryX=0.5;entryY=0;entryDx=0;entryDy=0;" parent="1" source="64" target="75" edge="1">
                    <mxGeometry relative="1" as="geometry">
                        <mxPoint x="-450" y="1640" as="targetPoint"/>
                        <Array as="points">
                            <mxPoint x="-450" y="1565"/>
                        </Array>
                    </mxGeometry>
                </mxCell>
                <mxCell id="98" value="False" style="edgeLabel;html=1;align=center;verticalAlign=middle;resizable=0;points=[];fontColor=#FFFFFF;" parent="71" vertex="1" connectable="0">
                    <mxGeometry x="-0.3138" y="-1" relative="1" as="geometry">
                        <mxPoint x="17" y="1" as="offset"/>
                    </mxGeometry>
                </mxCell>
                <mxCell id="117" value="" style="edgeStyle=none;html=1;entryX=0.5;entryY=0;entryDx=0;entryDy=0;exitX=1;exitY=0.5;exitDx=0;exitDy=0;" edge="1" parent="1" source="64" target="116">
                    <mxGeometry relative="1" as="geometry">
                        <Array as="points">
                            <mxPoint x="-152" y="1565"/>
                        </Array>
                    </mxGeometry>
                </mxCell>
                <mxCell id="64" value="&lt;span style=&quot;font-family: Consolas, &amp;quot;Courier New&amp;quot;, monospace; font-size: 14px; color: rgb(156, 220, 254);&quot;&gt;grade&lt;/span&gt;&lt;span style=&quot;color: rgb(204, 204, 204); font-family: Consolas, &amp;quot;Courier New&amp;quot;, monospace; font-size: 14px;&quot;&gt; &lt;/span&gt;&lt;span style=&quot;font-family: Consolas, &amp;quot;Courier New&amp;quot;, monospace; font-size: 14px; color: rgb(212, 212, 212);&quot;&gt;&amp;lt;=&lt;/span&gt;&lt;span style=&quot;color: rgb(204, 204, 204); font-family: Consolas, &amp;quot;Courier New&amp;quot;, monospace; font-size: 14px;&quot;&gt; &lt;/span&gt;&lt;span style=&quot;font-family: Consolas, &amp;quot;Courier New&amp;quot;, monospace; font-size: 14px; color: rgb(181, 206, 168);&quot;&gt;92&lt;/span&gt;&lt;span style=&quot;color: rgb(204, 204, 204); font-family: Consolas, &amp;quot;Courier New&amp;quot;, monospace; font-size: 14px;&quot;&gt; &lt;/span&gt;&lt;span style=&quot;font-family: Consolas, &amp;quot;Courier New&amp;quot;, monospace; font-size: 14px; color: rgb(212, 212, 212);&quot;&gt;&amp;amp;&amp;amp;&lt;/span&gt;&lt;span style=&quot;color: rgb(204, 204, 204); font-family: Consolas, &amp;quot;Courier New&amp;quot;, monospace; font-size: 14px;&quot;&gt; &lt;/span&gt;&lt;span style=&quot;font-family: Consolas, &amp;quot;Courier New&amp;quot;, monospace; font-size: 14px; color: rgb(156, 220, 254);&quot;&gt;grade&lt;/span&gt;&lt;span style=&quot;color: rgb(204, 204, 204); font-family: Consolas, &amp;quot;Courier New&amp;quot;, monospace; font-size: 14px;&quot;&gt; &lt;/span&gt;&lt;span style=&quot;font-family: Consolas, &amp;quot;Courier New&amp;quot;, monospace; font-size: 14px; color: rgb(212, 212, 212);&quot;&gt;&amp;gt;&lt;/span&gt;&lt;span style=&quot;color: rgb(204, 204, 204); font-family: Consolas, &amp;quot;Courier New&amp;quot;, monospace; font-size: 14px;&quot;&gt; &lt;/span&gt;&lt;span style=&quot;font-family: Consolas, &amp;quot;Courier New&amp;quot;, monospace; font-size: 14px; color: rgb(181, 206, 168);&quot;&gt;89&lt;/span&gt;?" style="rhombus;whiteSpace=wrap;html=1;fontColor=#FFFFFF;labelBackgroundColor=none;" parent="1" vertex="1">
                    <mxGeometry x="-375" y="1490" width="150" height="150" as="geometry"/>
                </mxCell>
                <mxCell id="246" style="edgeStyle=none;html=1;exitX=0.5;exitY=1;exitDx=0;exitDy=0;entryX=0;entryY=0.5;entryDx=0;entryDy=0;" edge="1" parent="1" source="67" target="231">
                    <mxGeometry relative="1" as="geometry">
                        <mxPoint x="-860" y="3210" as="targetPoint"/>
                        <Array as="points">
                            <mxPoint x="135" y="1940"/>
                            <mxPoint x="-220" y="1940"/>
                            <mxPoint x="-220" y="2440"/>
                            <mxPoint x="-650" y="2440"/>
                            <mxPoint x="-650" y="3240"/>
                        </Array>
                    </mxGeometry>
                </mxCell>
                <mxCell id="67" value="Print&amp;nbsp;&lt;span style=&quot;color: rgb(206, 145, 120); font-family: Consolas, &amp;quot;Courier New&amp;quot;, monospace; font-size: 14px;&quot;&gt;&quot;Sobresaliente Alto&quot;&lt;/span&gt;" style="shape=parallelogram;perimeter=parallelogramPerimeter;whiteSpace=wrap;html=1;fixedSize=1;fontColor=#FFFFFF;labelBackgroundColor=none;" parent="1" vertex="1">
                    <mxGeometry x="50" y="1527.5" width="170" height="75" as="geometry"/>
                </mxCell>
                <mxCell id="78" value="" style="edgeStyle=none;html=1;fontColor=#FFFFFF;entryX=0.5;entryY=0;entryDx=0;entryDy=0;exitX=0;exitY=0.5;exitDx=0;exitDy=0;" parent="1" source="75" target="77" edge="1">
                    <mxGeometry relative="1" as="geometry">
                        <Array as="points">
                            <mxPoint x="-600" y="1715"/>
                        </Array>
                    </mxGeometry>
                </mxCell>
                <mxCell id="96" value="False" style="edgeLabel;html=1;align=center;verticalAlign=middle;resizable=0;points=[];fontColor=#FFFFFF;" parent="78" vertex="1" connectable="0">
                    <mxGeometry x="-0.3651" y="1" relative="1" as="geometry">
                        <mxPoint x="13" y="-1" as="offset"/>
                    </mxGeometry>
                </mxCell>
                <mxCell id="114" value="" style="edgeStyle=none;html=1;entryX=0.5;entryY=0;entryDx=0;entryDy=0;exitX=1;exitY=0.5;exitDx=0;exitDy=0;" edge="1" parent="1" source="75" target="113">
                    <mxGeometry relative="1" as="geometry">
                        <Array as="points">
                            <mxPoint x="-300" y="1715"/>
                        </Array>
                    </mxGeometry>
                </mxCell>
                <mxCell id="115" value="True" style="edgeLabel;html=1;align=center;verticalAlign=middle;resizable=0;points=[];" vertex="1" connectable="0" parent="114">
                    <mxGeometry x="-0.24" y="1" relative="1" as="geometry">
                        <mxPoint x="-22" y="1" as="offset"/>
                    </mxGeometry>
                </mxCell>
                <mxCell id="75" value="&lt;span style=&quot;font-family: Consolas, &amp;quot;Courier New&amp;quot;, monospace; font-size: 14px; color: rgb(156, 220, 254);&quot;&gt;grade&lt;/span&gt;&lt;span style=&quot;color: rgb(204, 204, 204); font-family: Consolas, &amp;quot;Courier New&amp;quot;, monospace; font-size: 14px;&quot;&gt; &lt;/span&gt;&lt;span style=&quot;font-family: Consolas, &amp;quot;Courier New&amp;quot;, monospace; font-size: 14px; color: rgb(212, 212, 212);&quot;&gt;&amp;lt;=&lt;/span&gt;&lt;span style=&quot;color: rgb(204, 204, 204); font-family: Consolas, &amp;quot;Courier New&amp;quot;, monospace; font-size: 14px;&quot;&gt; &lt;/span&gt;&lt;span style=&quot;font-family: Consolas, &amp;quot;Courier New&amp;quot;, monospace; font-size: 14px; color: rgb(181, 206, 168);&quot;&gt;89&lt;/span&gt;&lt;span style=&quot;color: rgb(204, 204, 204); font-family: Consolas, &amp;quot;Courier New&amp;quot;, monospace; font-size: 14px;&quot;&gt; &lt;/span&gt;&lt;span style=&quot;font-family: Consolas, &amp;quot;Courier New&amp;quot;, monospace; font-size: 14px; color: rgb(212, 212, 212);&quot;&gt;&amp;amp;&amp;amp;&lt;/span&gt;&lt;span style=&quot;color: rgb(204, 204, 204); font-family: Consolas, &amp;quot;Courier New&amp;quot;, monospace; font-size: 14px;&quot;&gt; &lt;/span&gt;&lt;span style=&quot;font-family: Consolas, &amp;quot;Courier New&amp;quot;, monospace; font-size: 14px; color: rgb(156, 220, 254);&quot;&gt;grade&lt;/span&gt;&lt;span style=&quot;color: rgb(204, 204, 204); font-family: Consolas, &amp;quot;Courier New&amp;quot;, monospace; font-size: 14px;&quot;&gt; &lt;/span&gt;&lt;span style=&quot;font-family: Consolas, &amp;quot;Courier New&amp;quot;, monospace; font-size: 14px; color: rgb(212, 212, 212);&quot;&gt;&amp;gt;&lt;/span&gt;&lt;span style=&quot;color: rgb(204, 204, 204); font-family: Consolas, &amp;quot;Courier New&amp;quot;, monospace; font-size: 14px;&quot;&gt; &lt;/span&gt;&lt;span style=&quot;font-family: Consolas, &amp;quot;Courier New&amp;quot;, monospace; font-size: 14px; color: rgb(181, 206, 168);&quot;&gt;86&lt;/span&gt;?" style="rhombus;whiteSpace=wrap;html=1;fontColor=#FFFFFF;labelBackgroundColor=none;" parent="1" vertex="1">
                    <mxGeometry x="-525" y="1640" width="150" height="150" as="geometry"/>
                </mxCell>
                <mxCell id="80" value="" style="edgeStyle=none;html=1;fontColor=#FFFFFF;entryX=0.5;entryY=0;entryDx=0;entryDy=0;exitX=0;exitY=0.5;exitDx=0;exitDy=0;" parent="1" source="77" target="79" edge="1">
                    <mxGeometry relative="1" as="geometry">
                        <Array as="points">
                            <mxPoint x="-750" y="1865"/>
                        </Array>
                    </mxGeometry>
                </mxCell>
                <mxCell id="95" value="False" style="edgeLabel;html=1;align=center;verticalAlign=middle;resizable=0;points=[];fontColor=#FFFFFF;" parent="80" vertex="1" connectable="0">
                    <mxGeometry x="-0.3856" y="1" relative="1" as="geometry">
                        <mxPoint x="11" y="-1" as="offset"/>
                    </mxGeometry>
                </mxCell>
                <mxCell id="112" value="" style="edgeStyle=none;html=1;fontColor=#FFFFFF;entryX=0.5;entryY=0;entryDx=0;entryDy=0;exitX=1;exitY=0.5;exitDx=0;exitDy=0;" parent="1" source="77" target="111" edge="1">
                    <mxGeometry relative="1" as="geometry">
                        <Array as="points">
                            <mxPoint x="-450" y="1865"/>
                        </Array>
                    </mxGeometry>
                </mxCell>
                <mxCell id="77" value="&lt;span style=&quot;font-family: Consolas, &amp;quot;Courier New&amp;quot;, monospace; font-size: 14px; color: rgb(156, 220, 254);&quot;&gt;grade&lt;/span&gt;&lt;span style=&quot;color: rgb(204, 204, 204); font-family: Consolas, &amp;quot;Courier New&amp;quot;, monospace; font-size: 14px;&quot;&gt; &lt;/span&gt;&lt;span style=&quot;font-family: Consolas, &amp;quot;Courier New&amp;quot;, monospace; font-size: 14px; color: rgb(212, 212, 212);&quot;&gt;&amp;lt;=&lt;/span&gt;&lt;span style=&quot;color: rgb(204, 204, 204); font-family: Consolas, &amp;quot;Courier New&amp;quot;, monospace; font-size: 14px;&quot;&gt; &lt;/span&gt;&lt;span style=&quot;font-family: Consolas, &amp;quot;Courier New&amp;quot;, monospace; font-size: 14px; color: rgb(181, 206, 168);&quot;&gt;86&lt;/span&gt;&lt;span style=&quot;color: rgb(204, 204, 204); font-family: Consolas, &amp;quot;Courier New&amp;quot;, monospace; font-size: 14px;&quot;&gt; &lt;/span&gt;&lt;span style=&quot;font-family: Consolas, &amp;quot;Courier New&amp;quot;, monospace; font-size: 14px; color: rgb(212, 212, 212);&quot;&gt;&amp;amp;&amp;amp;&lt;/span&gt;&lt;span style=&quot;color: rgb(204, 204, 204); font-family: Consolas, &amp;quot;Courier New&amp;quot;, monospace; font-size: 14px;&quot;&gt; &lt;/span&gt;&lt;span style=&quot;font-family: Consolas, &amp;quot;Courier New&amp;quot;, monospace; font-size: 14px; color: rgb(156, 220, 254);&quot;&gt;grade&lt;/span&gt;&lt;span style=&quot;color: rgb(204, 204, 204); font-family: Consolas, &amp;quot;Courier New&amp;quot;, monospace; font-size: 14px;&quot;&gt; &lt;/span&gt;&lt;span style=&quot;font-family: Consolas, &amp;quot;Courier New&amp;quot;, monospace; font-size: 14px; color: rgb(212, 212, 212);&quot;&gt;&amp;gt;&lt;/span&gt;&lt;span style=&quot;color: rgb(204, 204, 204); font-family: Consolas, &amp;quot;Courier New&amp;quot;, monospace; font-size: 14px;&quot;&gt; &lt;/span&gt;&lt;span style=&quot;font-family: Consolas, &amp;quot;Courier New&amp;quot;, monospace; font-size: 14px; color: rgb(181, 206, 168);&quot;&gt;82&lt;/span&gt;?" style="rhombus;whiteSpace=wrap;html=1;fontColor=#FFFFFF;labelBackgroundColor=none;" parent="1" vertex="1">
                    <mxGeometry x="-675" y="1790" width="150" height="150" as="geometry"/>
                </mxCell>
                <mxCell id="82" value="" style="edgeStyle=none;html=1;fontColor=#FFFFFF;entryX=0.5;entryY=0;entryDx=0;entryDy=0;exitX=0;exitY=0.5;exitDx=0;exitDy=0;" parent="1" source="79" target="81" edge="1">
                    <mxGeometry relative="1" as="geometry">
                        <Array as="points">
                            <mxPoint x="-900" y="2015"/>
                        </Array>
                    </mxGeometry>
                </mxCell>
                <mxCell id="94" value="False" style="edgeLabel;html=1;align=center;verticalAlign=middle;resizable=0;points=[];fontColor=#FFFFFF;" parent="82" vertex="1" connectable="0">
                    <mxGeometry x="-0.3754" y="2" relative="1" as="geometry">
                        <mxPoint x="12" y="-2" as="offset"/>
                    </mxGeometry>
                </mxCell>
                <mxCell id="110" value="" style="edgeStyle=none;html=1;fontColor=#FFFFFF;entryX=0.5;entryY=0;entryDx=0;entryDy=0;exitX=1;exitY=0.5;exitDx=0;exitDy=0;" parent="1" source="79" target="109" edge="1">
                    <mxGeometry relative="1" as="geometry">
                        <Array as="points">
                            <mxPoint x="-600" y="2015"/>
                        </Array>
                    </mxGeometry>
                </mxCell>
                <mxCell id="79" value="&lt;span style=&quot;font-family: Consolas, &amp;quot;Courier New&amp;quot;, monospace; font-size: 14px; color: rgb(156, 220, 254);&quot;&gt;grade&lt;/span&gt;&lt;span style=&quot;color: rgb(204, 204, 204); font-family: Consolas, &amp;quot;Courier New&amp;quot;, monospace; font-size: 14px;&quot;&gt; &lt;/span&gt;&lt;span style=&quot;font-family: Consolas, &amp;quot;Courier New&amp;quot;, monospace; font-size: 14px; color: rgb(212, 212, 212);&quot;&gt;&amp;lt;=&lt;/span&gt;&lt;span style=&quot;color: rgb(204, 204, 204); font-family: Consolas, &amp;quot;Courier New&amp;quot;, monospace; font-size: 14px;&quot;&gt; &lt;/span&gt;&lt;span style=&quot;font-family: Consolas, &amp;quot;Courier New&amp;quot;, monospace; font-size: 14px; color: rgb(181, 206, 168);&quot;&gt;82&lt;/span&gt;&lt;span style=&quot;color: rgb(204, 204, 204); font-family: Consolas, &amp;quot;Courier New&amp;quot;, monospace; font-size: 14px;&quot;&gt;&amp;nbsp;&lt;/span&gt;&lt;span style=&quot;font-family: Consolas, &amp;quot;Courier New&amp;quot;, monospace; font-size: 14px; color: rgb(212, 212, 212);&quot;&gt;&amp;amp;&amp;amp;&lt;/span&gt;&lt;span style=&quot;color: rgb(204, 204, 204); font-family: Consolas, &amp;quot;Courier New&amp;quot;, monospace; font-size: 14px;&quot;&gt; &lt;/span&gt;&lt;span style=&quot;font-family: Consolas, &amp;quot;Courier New&amp;quot;, monospace; font-size: 14px; color: rgb(156, 220, 254);&quot;&gt;grade&lt;/span&gt;&lt;span style=&quot;color: rgb(204, 204, 204); font-family: Consolas, &amp;quot;Courier New&amp;quot;, monospace; font-size: 14px;&quot;&gt; &lt;/span&gt;&lt;span style=&quot;font-family: Consolas, &amp;quot;Courier New&amp;quot;, monospace; font-size: 14px; color: rgb(212, 212, 212);&quot;&gt;&amp;gt;&lt;/span&gt;&lt;span style=&quot;color: rgb(204, 204, 204); font-family: Consolas, &amp;quot;Courier New&amp;quot;, monospace; font-size: 14px;&quot;&gt;&amp;nbsp;&lt;/span&gt;&lt;span style=&quot;font-family: Consolas, &amp;quot;Courier New&amp;quot;, monospace; font-size: 14px;&quot;&gt;&lt;font color=&quot;#b5cea8&quot;&gt;79&lt;/font&gt;&lt;/span&gt;?" style="rhombus;whiteSpace=wrap;html=1;fontColor=#FFFFFF;labelBackgroundColor=none;" parent="1" vertex="1">
                    <mxGeometry x="-825" y="1940" width="150" height="150" as="geometry"/>
                </mxCell>
                <mxCell id="84" value="" style="edgeStyle=none;html=1;fontColor=#FFFFFF;entryX=0.5;entryY=0;entryDx=0;entryDy=0;exitX=0;exitY=0.5;exitDx=0;exitDy=0;" parent="1" source="81" target="83" edge="1">
                    <mxGeometry relative="1" as="geometry">
                        <Array as="points">
                            <mxPoint x="-1050" y="2165"/>
                        </Array>
                    </mxGeometry>
                </mxCell>
                <mxCell id="93" value="False" style="edgeLabel;html=1;align=center;verticalAlign=middle;resizable=0;points=[];fontColor=#FFFFFF;" parent="84" vertex="1" connectable="0">
                    <mxGeometry x="-0.3959" relative="1" as="geometry">
                        <mxPoint x="10" as="offset"/>
                    </mxGeometry>
                </mxCell>
                <mxCell id="107" value="" style="edgeStyle=none;html=1;fontColor=#FFFFFF;entryX=0.5;entryY=0;entryDx=0;entryDy=0;exitX=1;exitY=0.5;exitDx=0;exitDy=0;" parent="1" source="81" target="106" edge="1">
                    <mxGeometry relative="1" as="geometry">
                        <Array as="points">
                            <mxPoint x="-750" y="2165"/>
                        </Array>
                    </mxGeometry>
                </mxCell>
                <mxCell id="108" value="True" style="edgeLabel;html=1;align=center;verticalAlign=middle;resizable=0;points=[];fontColor=#FFFFFF;" parent="107" vertex="1" connectable="0">
                    <mxGeometry x="-0.3346" relative="1" as="geometry">
                        <mxPoint x="-15" as="offset"/>
                    </mxGeometry>
                </mxCell>
                <mxCell id="81" value="&lt;span style=&quot;font-family: Consolas, &amp;quot;Courier New&amp;quot;, monospace; font-size: 14px; color: rgb(156, 220, 254);&quot;&gt;grade&lt;/span&gt;&lt;span style=&quot;color: rgb(204, 204, 204); font-family: Consolas, &amp;quot;Courier New&amp;quot;, monospace; font-size: 14px;&quot;&gt; &lt;/span&gt;&lt;span style=&quot;font-family: Consolas, &amp;quot;Courier New&amp;quot;, monospace; font-size: 14px; color: rgb(212, 212, 212);&quot;&gt;&amp;lt;=&lt;/span&gt;&lt;span style=&quot;color: rgb(204, 204, 204); font-family: Consolas, &amp;quot;Courier New&amp;quot;, monospace; font-size: 14px;&quot;&gt; &lt;/span&gt;&lt;span style=&quot;font-family: Consolas, &amp;quot;Courier New&amp;quot;, monospace; font-size: 14px; color: rgb(181, 206, 168);&quot;&gt;79&lt;/span&gt;&lt;span style=&quot;color: rgb(204, 204, 204); font-family: Consolas, &amp;quot;Courier New&amp;quot;, monospace; font-size: 14px;&quot;&gt;&amp;nbsp;&lt;/span&gt;&lt;span style=&quot;font-family: Consolas, &amp;quot;Courier New&amp;quot;, monospace; font-size: 14px; color: rgb(212, 212, 212);&quot;&gt;&amp;amp;&amp;amp;&lt;/span&gt;&lt;span style=&quot;color: rgb(204, 204, 204); font-family: Consolas, &amp;quot;Courier New&amp;quot;, monospace; font-size: 14px;&quot;&gt; &lt;/span&gt;&lt;span style=&quot;font-family: Consolas, &amp;quot;Courier New&amp;quot;, monospace; font-size: 14px; color: rgb(156, 220, 254);&quot;&gt;grade&lt;/span&gt;&lt;span style=&quot;color: rgb(204, 204, 204); font-family: Consolas, &amp;quot;Courier New&amp;quot;, monospace; font-size: 14px;&quot;&gt; &lt;/span&gt;&lt;span style=&quot;font-family: Consolas, &amp;quot;Courier New&amp;quot;, monospace; font-size: 14px; color: rgb(212, 212, 212);&quot;&gt;&amp;gt;&lt;/span&gt;&lt;span style=&quot;color: rgb(204, 204, 204); font-family: Consolas, &amp;quot;Courier New&amp;quot;, monospace; font-size: 14px;&quot;&gt;&amp;nbsp;&lt;/span&gt;&lt;span style=&quot;font-family: Consolas, &amp;quot;Courier New&amp;quot;, monospace; font-size: 14px;&quot;&gt;&lt;font color=&quot;#b5cea8&quot;&gt;76&lt;/font&gt;&lt;/span&gt;?" style="rhombus;whiteSpace=wrap;html=1;fontColor=#FFFFFF;labelBackgroundColor=none;" parent="1" vertex="1">
                    <mxGeometry x="-975" y="2090" width="150" height="150" as="geometry"/>
                </mxCell>
                <mxCell id="86" value="" style="edgeStyle=none;html=1;fontColor=#FFFFFF;entryX=0.5;entryY=0;entryDx=0;entryDy=0;exitX=0;exitY=0.5;exitDx=0;exitDy=0;" parent="1" source="83" target="85" edge="1">
                    <mxGeometry relative="1" as="geometry">
                        <Array as="points">
                            <mxPoint x="-1200" y="2315"/>
                        </Array>
                    </mxGeometry>
                </mxCell>
                <mxCell id="92" value="False" style="edgeLabel;html=1;align=center;verticalAlign=middle;resizable=0;points=[];fontColor=#FFFFFF;" parent="86" vertex="1" connectable="0">
                    <mxGeometry x="-0.3856" y="1" relative="1" as="geometry">
                        <mxPoint x="11" y="-1" as="offset"/>
                    </mxGeometry>
                </mxCell>
                <mxCell id="103" value="" style="edgeStyle=none;html=1;fontColor=#FFFFFF;entryX=0.5;entryY=0;entryDx=0;entryDy=0;exitX=1;exitY=0.5;exitDx=0;exitDy=0;" parent="1" source="83" target="102" edge="1">
                    <mxGeometry relative="1" as="geometry">
                        <Array as="points">
                            <mxPoint x="-900" y="2315"/>
                        </Array>
                    </mxGeometry>
                </mxCell>
                <mxCell id="105" value="True" style="edgeLabel;html=1;align=center;verticalAlign=middle;resizable=0;points=[];fontColor=#FFFFFF;" parent="103" vertex="1" connectable="0">
                    <mxGeometry x="-0.7143" y="-2" relative="1" as="geometry">
                        <mxPoint x="14" y="-2" as="offset"/>
                    </mxGeometry>
                </mxCell>
                <mxCell id="83" value="&lt;span style=&quot;font-family: Consolas, &amp;quot;Courier New&amp;quot;, monospace; font-size: 14px; color: rgb(156, 220, 254);&quot;&gt;grade&lt;/span&gt;&lt;span style=&quot;color: rgb(204, 204, 204); font-family: Consolas, &amp;quot;Courier New&amp;quot;, monospace; font-size: 14px;&quot;&gt; &lt;/span&gt;&lt;span style=&quot;font-family: Consolas, &amp;quot;Courier New&amp;quot;, monospace; font-size: 14px; color: rgb(212, 212, 212);&quot;&gt;&amp;lt;=&lt;/span&gt;&lt;span style=&quot;color: rgb(204, 204, 204); font-family: Consolas, &amp;quot;Courier New&amp;quot;, monospace; font-size: 14px;&quot;&gt; &lt;/span&gt;&lt;span style=&quot;font-family: Consolas, &amp;quot;Courier New&amp;quot;, monospace; font-size: 14px; color: rgb(181, 206, 168);&quot;&gt;76&lt;/span&gt;&lt;span style=&quot;color: rgb(204, 204, 204); font-family: Consolas, &amp;quot;Courier New&amp;quot;, monospace; font-size: 14px;&quot;&gt;&amp;nbsp;&lt;/span&gt;&lt;span style=&quot;font-family: Consolas, &amp;quot;Courier New&amp;quot;, monospace; font-size: 14px; color: rgb(212, 212, 212);&quot;&gt;&amp;amp;&amp;amp;&lt;/span&gt;&lt;span style=&quot;color: rgb(204, 204, 204); font-family: Consolas, &amp;quot;Courier New&amp;quot;, monospace; font-size: 14px;&quot;&gt; &lt;/span&gt;&lt;span style=&quot;font-family: Consolas, &amp;quot;Courier New&amp;quot;, monospace; font-size: 14px; color: rgb(156, 220, 254);&quot;&gt;grade&lt;/span&gt;&lt;span style=&quot;color: rgb(204, 204, 204); font-family: Consolas, &amp;quot;Courier New&amp;quot;, monospace; font-size: 14px;&quot;&gt; &lt;/span&gt;&lt;span style=&quot;font-family: Consolas, &amp;quot;Courier New&amp;quot;, monospace; font-size: 14px; color: rgb(212, 212, 212);&quot;&gt;&amp;gt;&lt;/span&gt;&lt;span style=&quot;color: rgb(204, 204, 204); font-family: Consolas, &amp;quot;Courier New&amp;quot;, monospace; font-size: 14px;&quot;&gt;&amp;nbsp;&lt;/span&gt;&lt;span style=&quot;font-family: Consolas, &amp;quot;Courier New&amp;quot;, monospace; font-size: 14px;&quot;&gt;&lt;font color=&quot;#b5cea8&quot;&gt;72&lt;/font&gt;&lt;/span&gt;?" style="rhombus;whiteSpace=wrap;html=1;fontColor=#FFFFFF;labelBackgroundColor=none;" parent="1" vertex="1">
                    <mxGeometry x="-1125" y="2240" width="150" height="150" as="geometry"/>
                </mxCell>
                <mxCell id="88" value="" style="edgeStyle=none;html=1;fontColor=#FFFFFF;entryX=0.5;entryY=0;entryDx=0;entryDy=0;exitX=0;exitY=0.5;exitDx=0;exitDy=0;" parent="1" source="85" target="87" edge="1">
                    <mxGeometry relative="1" as="geometry">
                        <mxPoint x="-1280" y="2465" as="sourcePoint"/>
                        <Array as="points">
                            <mxPoint x="-1357" y="2465"/>
                        </Array>
                    </mxGeometry>
                </mxCell>
                <mxCell id="91" value="False" style="edgeLabel;html=1;align=center;verticalAlign=middle;resizable=0;points=[];fontColor=#FFFFFF;" parent="88" vertex="1" connectable="0">
                    <mxGeometry x="-0.3312" y="-1" relative="1" as="geometry">
                        <mxPoint x="14" y="1" as="offset"/>
                    </mxGeometry>
                </mxCell>
                <mxCell id="100" value="" style="edgeStyle=none;html=1;fontColor=#FFFFFF;entryX=0.5;entryY=0;entryDx=0;entryDy=0;exitX=1;exitY=0.5;exitDx=0;exitDy=0;" parent="1" source="85" target="99" edge="1">
                    <mxGeometry relative="1" as="geometry">
                        <Array as="points">
                            <mxPoint x="-1050" y="2465"/>
                        </Array>
                    </mxGeometry>
                </mxCell>
                <mxCell id="101" value="True" style="edgeLabel;html=1;align=center;verticalAlign=middle;resizable=0;points=[];fontColor=#FFFFFF;" parent="100" vertex="1" connectable="0">
                    <mxGeometry x="-0.2838" y="2" relative="1" as="geometry">
                        <mxPoint x="-18" y="2" as="offset"/>
                    </mxGeometry>
                </mxCell>
                <mxCell id="85" value="&lt;span style=&quot;font-family: Consolas, &amp;quot;Courier New&amp;quot;, monospace; font-size: 14px; color: rgb(156, 220, 254);&quot;&gt;grade&lt;/span&gt;&lt;span style=&quot;color: rgb(204, 204, 204); font-family: Consolas, &amp;quot;Courier New&amp;quot;, monospace; font-size: 14px;&quot;&gt; &lt;/span&gt;&lt;span style=&quot;font-family: Consolas, &amp;quot;Courier New&amp;quot;, monospace; font-size: 14px; color: rgb(212, 212, 212);&quot;&gt;&amp;lt;=&lt;/span&gt;&lt;span style=&quot;color: rgb(204, 204, 204); font-family: Consolas, &amp;quot;Courier New&amp;quot;, monospace; font-size: 14px;&quot;&gt; &lt;/span&gt;&lt;span style=&quot;font-family: Consolas, &amp;quot;Courier New&amp;quot;, monospace; font-size: 14px; color: rgb(181, 206, 168);&quot;&gt;72&lt;/span&gt;&lt;span style=&quot;color: rgb(204, 204, 204); font-family: Consolas, &amp;quot;Courier New&amp;quot;, monospace; font-size: 14px;&quot;&gt;&amp;nbsp;&lt;/span&gt;&lt;span style=&quot;font-family: Consolas, &amp;quot;Courier New&amp;quot;, monospace; font-size: 14px; color: rgb(212, 212, 212);&quot;&gt;&amp;amp;&amp;amp;&lt;/span&gt;&lt;span style=&quot;color: rgb(204, 204, 204); font-family: Consolas, &amp;quot;Courier New&amp;quot;, monospace; font-size: 14px;&quot;&gt; &lt;/span&gt;&lt;span style=&quot;font-family: Consolas, &amp;quot;Courier New&amp;quot;, monospace; font-size: 14px; color: rgb(156, 220, 254);&quot;&gt;grade&lt;/span&gt;&lt;span style=&quot;color: rgb(204, 204, 204); font-family: Consolas, &amp;quot;Courier New&amp;quot;, monospace; font-size: 14px;&quot;&gt; &lt;/span&gt;&lt;span style=&quot;font-family: Consolas, &amp;quot;Courier New&amp;quot;, monospace; font-size: 14px; color: rgb(212, 212, 212);&quot;&gt;&amp;gt;&lt;/span&gt;&lt;span style=&quot;color: rgb(204, 204, 204); font-family: Consolas, &amp;quot;Courier New&amp;quot;, monospace; font-size: 14px;&quot;&gt;&amp;nbsp;&lt;/span&gt;&lt;span style=&quot;font-family: Consolas, &amp;quot;Courier New&amp;quot;, monospace; font-size: 14px;&quot;&gt;&lt;font color=&quot;#b5cea8&quot;&gt;69&lt;/font&gt;&lt;/span&gt;?" style="rhombus;whiteSpace=wrap;html=1;fontColor=#FFFFFF;labelBackgroundColor=none;" parent="1" vertex="1">
                    <mxGeometry x="-1275" y="2390" width="150" height="150" as="geometry"/>
                </mxCell>
                <mxCell id="247" style="edgeStyle=none;html=1;exitX=0.5;exitY=1;exitDx=0;exitDy=0;entryX=0;entryY=0.5;entryDx=0;entryDy=0;" edge="1" parent="1" source="87" target="231">
                    <mxGeometry relative="1" as="geometry">
                        <Array as="points">
                            <mxPoint x="-1360" y="3240"/>
                        </Array>
                    </mxGeometry>
                </mxCell>
                <mxCell id="87" value="Print&amp;nbsp;&lt;span style=&quot;color: rgb(206, 145, 120); font-family: Consolas, &amp;quot;Courier New&amp;quot;, monospace; font-size: 14px;&quot;&gt;&quot;Insuficiente&quot;&lt;/span&gt;" style="shape=parallelogram;perimeter=parallelogramPerimeter;whiteSpace=wrap;html=1;fixedSize=1;fontColor=#FFFFFF;labelBackgroundColor=none;" parent="1" vertex="1">
                    <mxGeometry x="-1440" y="2540" width="165" height="60" as="geometry"/>
                </mxCell>
                <mxCell id="248" style="edgeStyle=none;html=1;exitX=0.5;exitY=1;exitDx=0;exitDy=0;entryX=0;entryY=0.5;entryDx=0;entryDy=0;" edge="1" parent="1" source="99" target="231">
                    <mxGeometry relative="1" as="geometry">
                        <Array as="points">
                            <mxPoint x="-1050" y="3240"/>
                        </Array>
                    </mxGeometry>
                </mxCell>
                <mxCell id="99" value="Print&amp;nbsp;&lt;span style=&quot;color: rgb(206, 145, 120); font-family: Consolas, &amp;quot;Courier New&amp;quot;, monospace; font-size: 14px;&quot;&gt;&quot;Suficiente Bajo&quot;&lt;/span&gt;" style="shape=parallelogram;perimeter=parallelogramPerimeter;whiteSpace=wrap;html=1;fixedSize=1;fontColor=#FFFFFF;labelBackgroundColor=none;" parent="1" vertex="1">
                    <mxGeometry x="-1125" y="2540" width="150" height="60" as="geometry"/>
                </mxCell>
                <mxCell id="249" style="edgeStyle=none;html=1;exitX=0.5;exitY=1;exitDx=0;exitDy=0;entryX=0;entryY=0.5;entryDx=0;entryDy=0;" edge="1" parent="1" source="102" target="231">
                    <mxGeometry relative="1" as="geometry">
                        <Array as="points">
                            <mxPoint x="-900" y="3240"/>
                        </Array>
                    </mxGeometry>
                </mxCell>
                <mxCell id="102" value="Print&amp;nbsp;&lt;span style=&quot;color: rgb(206, 145, 120); font-family: Consolas, &amp;quot;Courier New&amp;quot;, monospace; font-size: 14px;&quot;&gt;&quot;Suficiente&quot;&lt;/span&gt;" style="shape=parallelogram;perimeter=parallelogramPerimeter;whiteSpace=wrap;html=1;fixedSize=1;fontColor=#FFFFFF;labelBackgroundColor=none;" parent="1" vertex="1">
                    <mxGeometry x="-975" y="2390" width="150" height="60" as="geometry"/>
                </mxCell>
                <mxCell id="251" style="edgeStyle=none;html=1;exitX=0.5;exitY=1;exitDx=0;exitDy=0;entryX=0;entryY=0.5;entryDx=0;entryDy=0;" edge="1" parent="1" source="106" target="231">
                    <mxGeometry relative="1" as="geometry">
                        <Array as="points">
                            <mxPoint x="-750" y="3240"/>
                        </Array>
                    </mxGeometry>
                </mxCell>
                <mxCell id="106" value="Print&amp;nbsp;&lt;span style=&quot;color: rgb(206, 145, 120); font-family: Consolas, &amp;quot;Courier New&amp;quot;, monospace; font-size: 14px;&quot;&gt;&quot;Bien&quot;&lt;/span&gt;" style="shape=parallelogram;perimeter=parallelogramPerimeter;whiteSpace=wrap;html=1;fixedSize=1;fontColor=#FFFFFF;labelBackgroundColor=none;" parent="1" vertex="1">
                    <mxGeometry x="-810" y="2240" width="120" height="60" as="geometry"/>
                </mxCell>
                <mxCell id="252" style="edgeStyle=none;html=1;exitX=0.5;exitY=1;exitDx=0;exitDy=0;entryX=0;entryY=0.5;entryDx=0;entryDy=0;" edge="1" parent="1" source="109" target="231">
                    <mxGeometry relative="1" as="geometry">
                        <mxPoint x="-660" y="2760.0000000000005" as="targetPoint"/>
                        <Array as="points">
                            <mxPoint x="-600" y="2360"/>
                            <mxPoint x="-730" y="2360"/>
                            <mxPoint x="-730" y="3240"/>
                        </Array>
                    </mxGeometry>
                </mxCell>
                <mxCell id="109" value="Print&amp;nbsp;&lt;span style=&quot;color: rgb(206, 145, 120); font-family: Consolas, &amp;quot;Courier New&amp;quot;, monospace; font-size: 14px;&quot;&gt;&quot;Notable Bajo&quot;&lt;/span&gt;" style="shape=parallelogram;perimeter=parallelogramPerimeter;whiteSpace=wrap;html=1;fixedSize=1;fontColor=#FFFFFF;labelBackgroundColor=none;" parent="1" vertex="1">
                    <mxGeometry x="-665" y="2090" width="130" height="60" as="geometry"/>
                </mxCell>
                <mxCell id="253" style="edgeStyle=none;html=1;exitX=0.5;exitY=1;exitDx=0;exitDy=0;entryX=0;entryY=0.5;entryDx=0;entryDy=0;" edge="1" parent="1" source="111" target="231">
                    <mxGeometry relative="1" as="geometry">
                        <Array as="points">
                            <mxPoint x="-450" y="2380"/>
                            <mxPoint x="-710" y="2380"/>
                            <mxPoint x="-710" y="3240"/>
                        </Array>
                    </mxGeometry>
                </mxCell>
                <mxCell id="111" value="Print&amp;nbsp;&lt;span style=&quot;color: rgb(206, 145, 120); font-family: Consolas, &amp;quot;Courier New&amp;quot;, monospace; font-size: 14px;&quot;&gt;&quot;Notable&quot;&lt;/span&gt;" style="shape=parallelogram;perimeter=parallelogramPerimeter;whiteSpace=wrap;html=1;fixedSize=1;fontColor=#FFFFFF;labelBackgroundColor=none;" parent="1" vertex="1">
                    <mxGeometry x="-515" y="1940" width="130" height="60" as="geometry"/>
                </mxCell>
                <mxCell id="254" style="edgeStyle=none;html=1;entryX=0;entryY=0.5;entryDx=0;entryDy=0;" edge="1" parent="1" source="113" target="231">
                    <mxGeometry relative="1" as="geometry">
                        <Array as="points">
                            <mxPoint x="-310" y="2400"/>
                            <mxPoint x="-690" y="2400"/>
                            <mxPoint x="-690" y="3240"/>
                        </Array>
                    </mxGeometry>
                </mxCell>
                <mxCell id="113" value="Print&amp;nbsp;&lt;span style=&quot;color: rgb(206, 145, 120); font-family: Consolas, &amp;quot;Courier New&amp;quot;, monospace; font-size: 14px;&quot;&gt;&quot;Notable Alto&quot;&lt;/span&gt;" style="shape=parallelogram;perimeter=parallelogramPerimeter;whiteSpace=wrap;html=1;fixedSize=1;fontColor=#FFFFFF;labelBackgroundColor=none;" vertex="1" parent="1">
                    <mxGeometry x="-365" y="1790" width="130" height="60" as="geometry"/>
                </mxCell>
                <mxCell id="255" style="edgeStyle=none;html=1;exitX=0.5;exitY=1;exitDx=0;exitDy=0;entryX=0;entryY=0.5;entryDx=0;entryDy=0;" edge="1" parent="1" source="116" target="231">
                    <mxGeometry relative="1" as="geometry">
                        <Array as="points">
                            <mxPoint x="-150" y="1920"/>
                            <mxPoint x="-240" y="1920"/>
                            <mxPoint x="-240" y="2420"/>
                            <mxPoint x="-670" y="2420"/>
                            <mxPoint x="-670" y="3240"/>
                        </Array>
                    </mxGeometry>
                </mxCell>
                <mxCell id="116" value="Print&amp;nbsp;&lt;span style=&quot;color: rgb(206, 145, 120); font-family: Consolas, &amp;quot;Courier New&amp;quot;, monospace; font-size: 14px;&quot;&gt;&quot;Sobresaliente&quot;&lt;/span&gt;" style="shape=parallelogram;perimeter=parallelogramPerimeter;whiteSpace=wrap;html=1;fixedSize=1;fontColor=#FFFFFF;labelBackgroundColor=none;" vertex="1" parent="1">
                    <mxGeometry x="-235" y="1640" width="170" height="60" as="geometry"/>
                </mxCell>
                <mxCell id="164" value="" style="edgeStyle=none;html=1;fontColor=#FFFFFF;exitX=0;exitY=0.5;exitDx=0;exitDy=0;entryX=0.5;entryY=0;entryDx=0;entryDy=0;" edge="1" parent="1" source="168" target="172">
                    <mxGeometry relative="1" as="geometry">
                        <Array as="points">
                            <mxPoint x="915" y="1295"/>
                        </Array>
                    </mxGeometry>
                </mxCell>
                <mxCell id="165" value="False" style="edgeLabel;html=1;align=center;verticalAlign=middle;resizable=0;points=[];fontColor=#FFFFFF;" vertex="1" connectable="0" parent="164">
                    <mxGeometry x="-0.2017" y="-2" relative="1" as="geometry">
                        <mxPoint x="12" y="2" as="offset"/>
                    </mxGeometry>
                </mxCell>
                <mxCell id="166" value="" style="edgeStyle=none;html=1;fontColor=#FFFFFF;entryX=0.5;entryY=0;entryDx=0;entryDy=0;exitX=1;exitY=0.5;exitDx=0;exitDy=0;" edge="1" parent="1" source="168" target="173">
                    <mxGeometry relative="1" as="geometry">
                        <Array as="points">
                            <mxPoint x="1350" y="1295"/>
                        </Array>
                    </mxGeometry>
                </mxCell>
                <mxCell id="167" value="True" style="edgeLabel;html=1;align=center;verticalAlign=middle;resizable=0;points=[];fontColor=#FFFFFF;" vertex="1" connectable="0" parent="166">
                    <mxGeometry x="-0.586" y="-1" relative="1" as="geometry">
                        <mxPoint x="15" y="-1" as="offset"/>
                    </mxGeometry>
                </mxCell>
                <mxCell id="168" value="&lt;span style=&quot;font-family: Consolas, &amp;quot;Courier New&amp;quot;, monospace; font-size: 14px; color: rgb(156, 220, 254);&quot;&gt;grade&lt;/span&gt;&lt;span style=&quot;color: rgb(204, 204, 204); font-family: Consolas, &amp;quot;Courier New&amp;quot;, monospace; font-size: 14px;&quot;&gt; &lt;/span&gt;&lt;span style=&quot;font-family: Consolas, &amp;quot;Courier New&amp;quot;, monospace; font-size: 14px; color: rgb(212, 212, 212);&quot;&gt;&amp;lt;=&lt;/span&gt;&lt;span style=&quot;color: rgb(204, 204, 204); font-family: Consolas, &amp;quot;Courier New&amp;quot;, monospace; font-size: 14px;&quot;&gt; &lt;/span&gt;&lt;span style=&quot;font-family: Consolas, &amp;quot;Courier New&amp;quot;, monospace; font-size: 14px; color: rgb(181, 206, 168);&quot;&gt;100&lt;/span&gt;&lt;span style=&quot;color: rgb(204, 204, 204); font-family: Consolas, &amp;quot;Courier New&amp;quot;, monospace; font-size: 14px;&quot;&gt; &lt;/span&gt;&lt;span style=&quot;font-family: Consolas, &amp;quot;Courier New&amp;quot;, monospace; font-size: 14px; color: rgb(212, 212, 212);&quot;&gt;&amp;amp;&amp;amp;&lt;/span&gt;&lt;span style=&quot;color: rgb(204, 204, 204); font-family: Consolas, &amp;quot;Courier New&amp;quot;, monospace; font-size: 14px;&quot;&gt; &lt;/span&gt;&lt;span style=&quot;font-family: Consolas, &amp;quot;Courier New&amp;quot;, monospace; font-size: 14px; color: rgb(156, 220, 254);&quot;&gt;grade&lt;/span&gt;&lt;span style=&quot;color: rgb(204, 204, 204); font-family: Consolas, &amp;quot;Courier New&amp;quot;, monospace; font-size: 14px;&quot;&gt; &lt;/span&gt;&lt;span style=&quot;font-family: Consolas, &amp;quot;Courier New&amp;quot;, monospace; font-size: 14px; color: rgb(212, 212, 212);&quot;&gt;&amp;gt;&lt;/span&gt;&lt;span style=&quot;color: rgb(204, 204, 204); font-family: Consolas, &amp;quot;Courier New&amp;quot;, monospace; font-size: 14px;&quot;&gt; &lt;/span&gt;&lt;span style=&quot;font-family: Consolas, &amp;quot;Courier New&amp;quot;, monospace; font-size: 14px; color: rgb(181, 206, 168);&quot;&gt;92&lt;/span&gt;?" style="rhombus;whiteSpace=wrap;html=1;fontColor=#FFFFFF;labelBackgroundColor=none;" vertex="1" parent="1">
                    <mxGeometry x="1077.5" y="1220" width="150" height="150" as="geometry"/>
                </mxCell>
                <mxCell id="169" value="" style="edgeStyle=none;html=1;fontColor=#FFFFFF;exitX=0;exitY=0.5;exitDx=0;exitDy=0;entryX=0.5;entryY=0;entryDx=0;entryDy=0;" edge="1" parent="1" source="172" target="178">
                    <mxGeometry relative="1" as="geometry">
                        <mxPoint x="765" y="1520" as="targetPoint"/>
                        <Array as="points">
                            <mxPoint x="765" y="1445"/>
                        </Array>
                    </mxGeometry>
                </mxCell>
                <mxCell id="170" value="False" style="edgeLabel;html=1;align=center;verticalAlign=middle;resizable=0;points=[];fontColor=#FFFFFF;" vertex="1" connectable="0" parent="169">
                    <mxGeometry x="-0.3138" y="-1" relative="1" as="geometry">
                        <mxPoint x="17" y="1" as="offset"/>
                    </mxGeometry>
                </mxCell>
                <mxCell id="171" value="" style="edgeStyle=none;html=1;entryX=0.5;entryY=0;entryDx=0;entryDy=0;exitX=1;exitY=0.5;exitDx=0;exitDy=0;" edge="1" parent="1" source="172" target="209">
                    <mxGeometry relative="1" as="geometry">
                        <Array as="points">
                            <mxPoint x="1063" y="1445"/>
                        </Array>
                    </mxGeometry>
                </mxCell>
                <mxCell id="172" value="&lt;span style=&quot;font-family: Consolas, &amp;quot;Courier New&amp;quot;, monospace; font-size: 14px; color: rgb(156, 220, 254);&quot;&gt;grade&lt;/span&gt;&lt;span style=&quot;color: rgb(204, 204, 204); font-family: Consolas, &amp;quot;Courier New&amp;quot;, monospace; font-size: 14px;&quot;&gt; &lt;/span&gt;&lt;span style=&quot;font-family: Consolas, &amp;quot;Courier New&amp;quot;, monospace; font-size: 14px; color: rgb(212, 212, 212);&quot;&gt;&amp;lt;=&lt;/span&gt;&lt;span style=&quot;color: rgb(204, 204, 204); font-family: Consolas, &amp;quot;Courier New&amp;quot;, monospace; font-size: 14px;&quot;&gt; &lt;/span&gt;&lt;span style=&quot;font-family: Consolas, &amp;quot;Courier New&amp;quot;, monospace; font-size: 14px; color: rgb(181, 206, 168);&quot;&gt;92&lt;/span&gt;&lt;span style=&quot;color: rgb(204, 204, 204); font-family: Consolas, &amp;quot;Courier New&amp;quot;, monospace; font-size: 14px;&quot;&gt; &lt;/span&gt;&lt;span style=&quot;font-family: Consolas, &amp;quot;Courier New&amp;quot;, monospace; font-size: 14px; color: rgb(212, 212, 212);&quot;&gt;&amp;amp;&amp;amp;&lt;/span&gt;&lt;span style=&quot;color: rgb(204, 204, 204); font-family: Consolas, &amp;quot;Courier New&amp;quot;, monospace; font-size: 14px;&quot;&gt; &lt;/span&gt;&lt;span style=&quot;font-family: Consolas, &amp;quot;Courier New&amp;quot;, monospace; font-size: 14px; color: rgb(156, 220, 254);&quot;&gt;grade&lt;/span&gt;&lt;span style=&quot;color: rgb(204, 204, 204); font-family: Consolas, &amp;quot;Courier New&amp;quot;, monospace; font-size: 14px;&quot;&gt; &lt;/span&gt;&lt;span style=&quot;font-family: Consolas, &amp;quot;Courier New&amp;quot;, monospace; font-size: 14px; color: rgb(212, 212, 212);&quot;&gt;&amp;gt;&lt;/span&gt;&lt;span style=&quot;color: rgb(204, 204, 204); font-family: Consolas, &amp;quot;Courier New&amp;quot;, monospace; font-size: 14px;&quot;&gt; &lt;/span&gt;&lt;span style=&quot;font-family: Consolas, &amp;quot;Courier New&amp;quot;, monospace; font-size: 14px; color: rgb(181, 206, 168);&quot;&gt;89&lt;/span&gt;?" style="rhombus;whiteSpace=wrap;html=1;fontColor=#FFFFFF;labelBackgroundColor=none;" vertex="1" parent="1">
                    <mxGeometry x="840" y="1370" width="150" height="150" as="geometry"/>
                </mxCell>
                <mxCell id="233" style="edgeStyle=none;html=1;exitX=0.5;exitY=1;exitDx=0;exitDy=0;entryX=0.5;entryY=0;entryDx=0;entryDy=0;" edge="1" parent="1" source="173" target="231">
                    <mxGeometry relative="1" as="geometry">
                        <Array as="points">
                            <mxPoint x="1350" y="3160"/>
                            <mxPoint y="3160"/>
                        </Array>
                    </mxGeometry>
                </mxCell>
                <mxCell id="173" value="Print&amp;nbsp;&lt;span style=&quot;color: rgb(206, 145, 120); font-family: Consolas, &amp;quot;Courier New&amp;quot;, monospace; font-size: 14px;&quot;&gt;&quot;A+&quot;&lt;/span&gt;" style="shape=parallelogram;perimeter=parallelogramPerimeter;whiteSpace=wrap;html=1;fixedSize=1;fontColor=#FFFFFF;labelBackgroundColor=none;" vertex="1" parent="1">
                    <mxGeometry x="1265" y="1407.5" width="170" height="75" as="geometry"/>
                </mxCell>
                <mxCell id="174" value="" style="edgeStyle=none;html=1;fontColor=#FFFFFF;entryX=0.5;entryY=0;entryDx=0;entryDy=0;exitX=0;exitY=0.5;exitDx=0;exitDy=0;" edge="1" parent="1" source="178" target="182">
                    <mxGeometry relative="1" as="geometry">
                        <Array as="points">
                            <mxPoint x="615" y="1595"/>
                        </Array>
                    </mxGeometry>
                </mxCell>
                <mxCell id="175" value="False" style="edgeLabel;html=1;align=center;verticalAlign=middle;resizable=0;points=[];fontColor=#FFFFFF;" vertex="1" connectable="0" parent="174">
                    <mxGeometry x="-0.3651" y="1" relative="1" as="geometry">
                        <mxPoint x="13" y="-1" as="offset"/>
                    </mxGeometry>
                </mxCell>
                <mxCell id="176" value="" style="edgeStyle=none;html=1;entryX=0.5;entryY=0;entryDx=0;entryDy=0;exitX=1;exitY=0.5;exitDx=0;exitDy=0;" edge="1" parent="1" source="178" target="208">
                    <mxGeometry relative="1" as="geometry">
                        <Array as="points">
                            <mxPoint x="915" y="1595"/>
                        </Array>
                    </mxGeometry>
                </mxCell>
                <mxCell id="177" value="True" style="edgeLabel;html=1;align=center;verticalAlign=middle;resizable=0;points=[];" vertex="1" connectable="0" parent="176">
                    <mxGeometry x="-0.24" y="1" relative="1" as="geometry">
                        <mxPoint x="-22" y="1" as="offset"/>
                    </mxGeometry>
                </mxCell>
                <mxCell id="178" value="&lt;span style=&quot;font-family: Consolas, &amp;quot;Courier New&amp;quot;, monospace; font-size: 14px; color: rgb(156, 220, 254);&quot;&gt;grade&lt;/span&gt;&lt;span style=&quot;color: rgb(204, 204, 204); font-family: Consolas, &amp;quot;Courier New&amp;quot;, monospace; font-size: 14px;&quot;&gt; &lt;/span&gt;&lt;span style=&quot;font-family: Consolas, &amp;quot;Courier New&amp;quot;, monospace; font-size: 14px; color: rgb(212, 212, 212);&quot;&gt;&amp;lt;=&lt;/span&gt;&lt;span style=&quot;color: rgb(204, 204, 204); font-family: Consolas, &amp;quot;Courier New&amp;quot;, monospace; font-size: 14px;&quot;&gt; &lt;/span&gt;&lt;span style=&quot;font-family: Consolas, &amp;quot;Courier New&amp;quot;, monospace; font-size: 14px; color: rgb(181, 206, 168);&quot;&gt;89&lt;/span&gt;&lt;span style=&quot;color: rgb(204, 204, 204); font-family: Consolas, &amp;quot;Courier New&amp;quot;, monospace; font-size: 14px;&quot;&gt; &lt;/span&gt;&lt;span style=&quot;font-family: Consolas, &amp;quot;Courier New&amp;quot;, monospace; font-size: 14px; color: rgb(212, 212, 212);&quot;&gt;&amp;amp;&amp;amp;&lt;/span&gt;&lt;span style=&quot;color: rgb(204, 204, 204); font-family: Consolas, &amp;quot;Courier New&amp;quot;, monospace; font-size: 14px;&quot;&gt; &lt;/span&gt;&lt;span style=&quot;font-family: Consolas, &amp;quot;Courier New&amp;quot;, monospace; font-size: 14px; color: rgb(156, 220, 254);&quot;&gt;grade&lt;/span&gt;&lt;span style=&quot;color: rgb(204, 204, 204); font-family: Consolas, &amp;quot;Courier New&amp;quot;, monospace; font-size: 14px;&quot;&gt; &lt;/span&gt;&lt;span style=&quot;font-family: Consolas, &amp;quot;Courier New&amp;quot;, monospace; font-size: 14px; color: rgb(212, 212, 212);&quot;&gt;&amp;gt;&lt;/span&gt;&lt;span style=&quot;color: rgb(204, 204, 204); font-family: Consolas, &amp;quot;Courier New&amp;quot;, monospace; font-size: 14px;&quot;&gt; &lt;/span&gt;&lt;span style=&quot;font-family: Consolas, &amp;quot;Courier New&amp;quot;, monospace; font-size: 14px; color: rgb(181, 206, 168);&quot;&gt;86&lt;/span&gt;?" style="rhombus;whiteSpace=wrap;html=1;fontColor=#FFFFFF;labelBackgroundColor=none;" vertex="1" parent="1">
                    <mxGeometry x="690" y="1520" width="150" height="150" as="geometry"/>
                </mxCell>
                <mxCell id="179" value="" style="edgeStyle=none;html=1;fontColor=#FFFFFF;entryX=0.5;entryY=0;entryDx=0;entryDy=0;exitX=0;exitY=0.5;exitDx=0;exitDy=0;" edge="1" parent="1" source="182" target="186">
                    <mxGeometry relative="1" as="geometry">
                        <Array as="points">
                            <mxPoint x="465" y="1745"/>
                        </Array>
                    </mxGeometry>
                </mxCell>
                <mxCell id="180" value="False" style="edgeLabel;html=1;align=center;verticalAlign=middle;resizable=0;points=[];fontColor=#FFFFFF;" vertex="1" connectable="0" parent="179">
                    <mxGeometry x="-0.3856" y="1" relative="1" as="geometry">
                        <mxPoint x="11" y="-1" as="offset"/>
                    </mxGeometry>
                </mxCell>
                <mxCell id="181" value="" style="edgeStyle=none;html=1;fontColor=#FFFFFF;entryX=0.5;entryY=0;entryDx=0;entryDy=0;exitX=1;exitY=0.5;exitDx=0;exitDy=0;" edge="1" parent="1" source="182" target="207">
                    <mxGeometry relative="1" as="geometry">
                        <Array as="points">
                            <mxPoint x="765" y="1745"/>
                        </Array>
                    </mxGeometry>
                </mxCell>
                <mxCell id="182" value="&lt;span style=&quot;font-family: Consolas, &amp;quot;Courier New&amp;quot;, monospace; font-size: 14px; color: rgb(156, 220, 254);&quot;&gt;grade&lt;/span&gt;&lt;span style=&quot;color: rgb(204, 204, 204); font-family: Consolas, &amp;quot;Courier New&amp;quot;, monospace; font-size: 14px;&quot;&gt; &lt;/span&gt;&lt;span style=&quot;font-family: Consolas, &amp;quot;Courier New&amp;quot;, monospace; font-size: 14px; color: rgb(212, 212, 212);&quot;&gt;&amp;lt;=&lt;/span&gt;&lt;span style=&quot;color: rgb(204, 204, 204); font-family: Consolas, &amp;quot;Courier New&amp;quot;, monospace; font-size: 14px;&quot;&gt; &lt;/span&gt;&lt;span style=&quot;font-family: Consolas, &amp;quot;Courier New&amp;quot;, monospace; font-size: 14px; color: rgb(181, 206, 168);&quot;&gt;86&lt;/span&gt;&lt;span style=&quot;color: rgb(204, 204, 204); font-family: Consolas, &amp;quot;Courier New&amp;quot;, monospace; font-size: 14px;&quot;&gt; &lt;/span&gt;&lt;span style=&quot;font-family: Consolas, &amp;quot;Courier New&amp;quot;, monospace; font-size: 14px; color: rgb(212, 212, 212);&quot;&gt;&amp;amp;&amp;amp;&lt;/span&gt;&lt;span style=&quot;color: rgb(204, 204, 204); font-family: Consolas, &amp;quot;Courier New&amp;quot;, monospace; font-size: 14px;&quot;&gt; &lt;/span&gt;&lt;span style=&quot;font-family: Consolas, &amp;quot;Courier New&amp;quot;, monospace; font-size: 14px; color: rgb(156, 220, 254);&quot;&gt;grade&lt;/span&gt;&lt;span style=&quot;color: rgb(204, 204, 204); font-family: Consolas, &amp;quot;Courier New&amp;quot;, monospace; font-size: 14px;&quot;&gt; &lt;/span&gt;&lt;span style=&quot;font-family: Consolas, &amp;quot;Courier New&amp;quot;, monospace; font-size: 14px; color: rgb(212, 212, 212);&quot;&gt;&amp;gt;&lt;/span&gt;&lt;span style=&quot;color: rgb(204, 204, 204); font-family: Consolas, &amp;quot;Courier New&amp;quot;, monospace; font-size: 14px;&quot;&gt; &lt;/span&gt;&lt;span style=&quot;font-family: Consolas, &amp;quot;Courier New&amp;quot;, monospace; font-size: 14px; color: rgb(181, 206, 168);&quot;&gt;82&lt;/span&gt;?" style="rhombus;whiteSpace=wrap;html=1;fontColor=#FFFFFF;labelBackgroundColor=none;" vertex="1" parent="1">
                    <mxGeometry x="540" y="1670" width="150" height="150" as="geometry"/>
                </mxCell>
                <mxCell id="183" value="" style="edgeStyle=none;html=1;fontColor=#FFFFFF;entryX=0.5;entryY=0;entryDx=0;entryDy=0;exitX=0;exitY=0.5;exitDx=0;exitDy=0;" edge="1" parent="1" source="186" target="191">
                    <mxGeometry relative="1" as="geometry">
                        <Array as="points">
                            <mxPoint x="315" y="1895"/>
                        </Array>
                    </mxGeometry>
                </mxCell>
                <mxCell id="184" value="False" style="edgeLabel;html=1;align=center;verticalAlign=middle;resizable=0;points=[];fontColor=#FFFFFF;" vertex="1" connectable="0" parent="183">
                    <mxGeometry x="-0.3754" y="2" relative="1" as="geometry">
                        <mxPoint x="12" y="-2" as="offset"/>
                    </mxGeometry>
                </mxCell>
                <mxCell id="185" value="" style="edgeStyle=none;html=1;fontColor=#FFFFFF;entryX=0.5;entryY=0;entryDx=0;entryDy=0;exitX=1;exitY=0.5;exitDx=0;exitDy=0;" edge="1" parent="1" source="186" target="206">
                    <mxGeometry relative="1" as="geometry">
                        <Array as="points">
                            <mxPoint x="615" y="1895"/>
                        </Array>
                    </mxGeometry>
                </mxCell>
                <mxCell id="186" value="&lt;span style=&quot;font-family: Consolas, &amp;quot;Courier New&amp;quot;, monospace; font-size: 14px; color: rgb(156, 220, 254);&quot;&gt;grade&lt;/span&gt;&lt;span style=&quot;color: rgb(204, 204, 204); font-family: Consolas, &amp;quot;Courier New&amp;quot;, monospace; font-size: 14px;&quot;&gt; &lt;/span&gt;&lt;span style=&quot;font-family: Consolas, &amp;quot;Courier New&amp;quot;, monospace; font-size: 14px; color: rgb(212, 212, 212);&quot;&gt;&amp;lt;=&lt;/span&gt;&lt;span style=&quot;color: rgb(204, 204, 204); font-family: Consolas, &amp;quot;Courier New&amp;quot;, monospace; font-size: 14px;&quot;&gt; &lt;/span&gt;&lt;span style=&quot;font-family: Consolas, &amp;quot;Courier New&amp;quot;, monospace; font-size: 14px; color: rgb(181, 206, 168);&quot;&gt;82&lt;/span&gt;&lt;span style=&quot;color: rgb(204, 204, 204); font-family: Consolas, &amp;quot;Courier New&amp;quot;, monospace; font-size: 14px;&quot;&gt;&amp;nbsp;&lt;/span&gt;&lt;span style=&quot;font-family: Consolas, &amp;quot;Courier New&amp;quot;, monospace; font-size: 14px; color: rgb(212, 212, 212);&quot;&gt;&amp;amp;&amp;amp;&lt;/span&gt;&lt;span style=&quot;color: rgb(204, 204, 204); font-family: Consolas, &amp;quot;Courier New&amp;quot;, monospace; font-size: 14px;&quot;&gt; &lt;/span&gt;&lt;span style=&quot;font-family: Consolas, &amp;quot;Courier New&amp;quot;, monospace; font-size: 14px; color: rgb(156, 220, 254);&quot;&gt;grade&lt;/span&gt;&lt;span style=&quot;color: rgb(204, 204, 204); font-family: Consolas, &amp;quot;Courier New&amp;quot;, monospace; font-size: 14px;&quot;&gt; &lt;/span&gt;&lt;span style=&quot;font-family: Consolas, &amp;quot;Courier New&amp;quot;, monospace; font-size: 14px; color: rgb(212, 212, 212);&quot;&gt;&amp;gt;&lt;/span&gt;&lt;span style=&quot;color: rgb(204, 204, 204); font-family: Consolas, &amp;quot;Courier New&amp;quot;, monospace; font-size: 14px;&quot;&gt;&amp;nbsp;&lt;/span&gt;&lt;span style=&quot;font-family: Consolas, &amp;quot;Courier New&amp;quot;, monospace; font-size: 14px;&quot;&gt;&lt;font color=&quot;#b5cea8&quot;&gt;79&lt;/font&gt;&lt;/span&gt;?" style="rhombus;whiteSpace=wrap;html=1;fontColor=#FFFFFF;labelBackgroundColor=none;" vertex="1" parent="1">
                    <mxGeometry x="390" y="1820" width="150" height="150" as="geometry"/>
                </mxCell>
                <mxCell id="187" value="" style="edgeStyle=none;html=1;fontColor=#FFFFFF;entryX=0.5;entryY=0;entryDx=0;entryDy=0;exitX=0;exitY=0.5;exitDx=0;exitDy=0;" edge="1" parent="1" source="191" target="196">
                    <mxGeometry relative="1" as="geometry">
                        <Array as="points">
                            <mxPoint x="165" y="2045"/>
                        </Array>
                    </mxGeometry>
                </mxCell>
                <mxCell id="188" value="False" style="edgeLabel;html=1;align=center;verticalAlign=middle;resizable=0;points=[];fontColor=#FFFFFF;" vertex="1" connectable="0" parent="187">
                    <mxGeometry x="-0.3959" relative="1" as="geometry">
                        <mxPoint x="10" as="offset"/>
                    </mxGeometry>
                </mxCell>
                <mxCell id="189" value="" style="edgeStyle=none;html=1;fontColor=#FFFFFF;entryX=0.5;entryY=0;entryDx=0;entryDy=0;exitX=1;exitY=0.5;exitDx=0;exitDy=0;" edge="1" parent="1" source="191" target="205">
                    <mxGeometry relative="1" as="geometry">
                        <Array as="points">
                            <mxPoint x="465" y="2045"/>
                        </Array>
                    </mxGeometry>
                </mxCell>
                <mxCell id="190" value="True" style="edgeLabel;html=1;align=center;verticalAlign=middle;resizable=0;points=[];fontColor=#FFFFFF;" vertex="1" connectable="0" parent="189">
                    <mxGeometry x="-0.3346" relative="1" as="geometry">
                        <mxPoint x="-15" as="offset"/>
                    </mxGeometry>
                </mxCell>
                <mxCell id="191" value="&lt;span style=&quot;font-family: Consolas, &amp;quot;Courier New&amp;quot;, monospace; font-size: 14px; color: rgb(156, 220, 254);&quot;&gt;grade&lt;/span&gt;&lt;span style=&quot;color: rgb(204, 204, 204); font-family: Consolas, &amp;quot;Courier New&amp;quot;, monospace; font-size: 14px;&quot;&gt; &lt;/span&gt;&lt;span style=&quot;font-family: Consolas, &amp;quot;Courier New&amp;quot;, monospace; font-size: 14px; color: rgb(212, 212, 212);&quot;&gt;&amp;lt;=&lt;/span&gt;&lt;span style=&quot;color: rgb(204, 204, 204); font-family: Consolas, &amp;quot;Courier New&amp;quot;, monospace; font-size: 14px;&quot;&gt; &lt;/span&gt;&lt;span style=&quot;font-family: Consolas, &amp;quot;Courier New&amp;quot;, monospace; font-size: 14px; color: rgb(181, 206, 168);&quot;&gt;79&lt;/span&gt;&lt;span style=&quot;color: rgb(204, 204, 204); font-family: Consolas, &amp;quot;Courier New&amp;quot;, monospace; font-size: 14px;&quot;&gt;&amp;nbsp;&lt;/span&gt;&lt;span style=&quot;font-family: Consolas, &amp;quot;Courier New&amp;quot;, monospace; font-size: 14px; color: rgb(212, 212, 212);&quot;&gt;&amp;amp;&amp;amp;&lt;/span&gt;&lt;span style=&quot;color: rgb(204, 204, 204); font-family: Consolas, &amp;quot;Courier New&amp;quot;, monospace; font-size: 14px;&quot;&gt; &lt;/span&gt;&lt;span style=&quot;font-family: Consolas, &amp;quot;Courier New&amp;quot;, monospace; font-size: 14px; color: rgb(156, 220, 254);&quot;&gt;grade&lt;/span&gt;&lt;span style=&quot;color: rgb(204, 204, 204); font-family: Consolas, &amp;quot;Courier New&amp;quot;, monospace; font-size: 14px;&quot;&gt; &lt;/span&gt;&lt;span style=&quot;font-family: Consolas, &amp;quot;Courier New&amp;quot;, monospace; font-size: 14px; color: rgb(212, 212, 212);&quot;&gt;&amp;gt;&lt;/span&gt;&lt;span style=&quot;color: rgb(204, 204, 204); font-family: Consolas, &amp;quot;Courier New&amp;quot;, monospace; font-size: 14px;&quot;&gt;&amp;nbsp;&lt;/span&gt;&lt;span style=&quot;font-family: Consolas, &amp;quot;Courier New&amp;quot;, monospace; font-size: 14px;&quot;&gt;&lt;font color=&quot;#b5cea8&quot;&gt;76&lt;/font&gt;&lt;/span&gt;?" style="rhombus;whiteSpace=wrap;html=1;fontColor=#FFFFFF;labelBackgroundColor=none;" vertex="1" parent="1">
                    <mxGeometry x="240" y="1970" width="150" height="150" as="geometry"/>
                </mxCell>
                <mxCell id="192" value="" style="edgeStyle=none;html=1;fontColor=#FFFFFF;entryX=0.5;entryY=0;entryDx=0;entryDy=0;exitX=0;exitY=0.5;exitDx=0;exitDy=0;" edge="1" parent="1" source="196" target="201">
                    <mxGeometry relative="1" as="geometry">
                        <Array as="points">
                            <mxPoint x="15" y="2195"/>
                        </Array>
                    </mxGeometry>
                </mxCell>
                <mxCell id="193" value="False" style="edgeLabel;html=1;align=center;verticalAlign=middle;resizable=0;points=[];fontColor=#FFFFFF;" vertex="1" connectable="0" parent="192">
                    <mxGeometry x="-0.3856" y="1" relative="1" as="geometry">
                        <mxPoint x="11" y="-1" as="offset"/>
                    </mxGeometry>
                </mxCell>
                <mxCell id="194" value="" style="edgeStyle=none;html=1;fontColor=#FFFFFF;entryX=0.5;entryY=0;entryDx=0;entryDy=0;exitX=1;exitY=0.5;exitDx=0;exitDy=0;" edge="1" parent="1" source="196" target="204">
                    <mxGeometry relative="1" as="geometry">
                        <Array as="points">
                            <mxPoint x="315" y="2195"/>
                        </Array>
                    </mxGeometry>
                </mxCell>
                <mxCell id="195" value="True" style="edgeLabel;html=1;align=center;verticalAlign=middle;resizable=0;points=[];fontColor=#FFFFFF;" vertex="1" connectable="0" parent="194">
                    <mxGeometry x="-0.7143" y="-2" relative="1" as="geometry">
                        <mxPoint x="14" y="-2" as="offset"/>
                    </mxGeometry>
                </mxCell>
                <mxCell id="196" value="&lt;span style=&quot;font-family: Consolas, &amp;quot;Courier New&amp;quot;, monospace; font-size: 14px; color: rgb(156, 220, 254);&quot;&gt;grade&lt;/span&gt;&lt;span style=&quot;color: rgb(204, 204, 204); font-family: Consolas, &amp;quot;Courier New&amp;quot;, monospace; font-size: 14px;&quot;&gt; &lt;/span&gt;&lt;span style=&quot;font-family: Consolas, &amp;quot;Courier New&amp;quot;, monospace; font-size: 14px; color: rgb(212, 212, 212);&quot;&gt;&amp;lt;=&lt;/span&gt;&lt;span style=&quot;color: rgb(204, 204, 204); font-family: Consolas, &amp;quot;Courier New&amp;quot;, monospace; font-size: 14px;&quot;&gt; &lt;/span&gt;&lt;span style=&quot;font-family: Consolas, &amp;quot;Courier New&amp;quot;, monospace; font-size: 14px; color: rgb(181, 206, 168);&quot;&gt;76&lt;/span&gt;&lt;span style=&quot;color: rgb(204, 204, 204); font-family: Consolas, &amp;quot;Courier New&amp;quot;, monospace; font-size: 14px;&quot;&gt;&amp;nbsp;&lt;/span&gt;&lt;span style=&quot;font-family: Consolas, &amp;quot;Courier New&amp;quot;, monospace; font-size: 14px; color: rgb(212, 212, 212);&quot;&gt;&amp;amp;&amp;amp;&lt;/span&gt;&lt;span style=&quot;color: rgb(204, 204, 204); font-family: Consolas, &amp;quot;Courier New&amp;quot;, monospace; font-size: 14px;&quot;&gt; &lt;/span&gt;&lt;span style=&quot;font-family: Consolas, &amp;quot;Courier New&amp;quot;, monospace; font-size: 14px; color: rgb(156, 220, 254);&quot;&gt;grade&lt;/span&gt;&lt;span style=&quot;color: rgb(204, 204, 204); font-family: Consolas, &amp;quot;Courier New&amp;quot;, monospace; font-size: 14px;&quot;&gt; &lt;/span&gt;&lt;span style=&quot;font-family: Consolas, &amp;quot;Courier New&amp;quot;, monospace; font-size: 14px; color: rgb(212, 212, 212);&quot;&gt;&amp;gt;&lt;/span&gt;&lt;span style=&quot;color: rgb(204, 204, 204); font-family: Consolas, &amp;quot;Courier New&amp;quot;, monospace; font-size: 14px;&quot;&gt;&amp;nbsp;&lt;/span&gt;&lt;span style=&quot;font-family: Consolas, &amp;quot;Courier New&amp;quot;, monospace; font-size: 14px;&quot;&gt;&lt;font color=&quot;#b5cea8&quot;&gt;72&lt;/font&gt;&lt;/span&gt;?" style="rhombus;whiteSpace=wrap;html=1;fontColor=#FFFFFF;labelBackgroundColor=none;" vertex="1" parent="1">
                    <mxGeometry x="90" y="2120" width="150" height="150" as="geometry"/>
                </mxCell>
                <mxCell id="199" value="" style="edgeStyle=none;html=1;fontColor=#FFFFFF;entryX=0.5;entryY=0;entryDx=0;entryDy=0;exitX=1;exitY=0.5;exitDx=0;exitDy=0;" edge="1" parent="1" source="201" target="203">
                    <mxGeometry relative="1" as="geometry">
                        <Array as="points">
                            <mxPoint x="165" y="2345"/>
                        </Array>
                    </mxGeometry>
                </mxCell>
                <mxCell id="200" value="True" style="edgeLabel;html=1;align=center;verticalAlign=middle;resizable=0;points=[];fontColor=#FFFFFF;" vertex="1" connectable="0" parent="199">
                    <mxGeometry x="-0.2838" y="2" relative="1" as="geometry">
                        <mxPoint x="-18" y="2" as="offset"/>
                    </mxGeometry>
                </mxCell>
                <mxCell id="212" value="" style="edgeStyle=none;html=1;entryX=0.5;entryY=0;entryDx=0;entryDy=0;exitX=0;exitY=0.5;exitDx=0;exitDy=0;" edge="1" parent="1" source="201" target="211">
                    <mxGeometry relative="1" as="geometry">
                        <Array as="points">
                            <mxPoint x="-135" y="2345"/>
                        </Array>
                    </mxGeometry>
                </mxCell>
                <mxCell id="213" value="False" style="edgeLabel;html=1;align=center;verticalAlign=middle;resizable=0;points=[];" vertex="1" connectable="0" parent="212">
                    <mxGeometry x="-0.2571" y="-1" relative="1" as="geometry">
                        <mxPoint x="16" y="1" as="offset"/>
                    </mxGeometry>
                </mxCell>
                <mxCell id="201" value="&lt;span style=&quot;font-family: Consolas, &amp;quot;Courier New&amp;quot;, monospace; font-size: 14px; color: rgb(156, 220, 254);&quot;&gt;grade&lt;/span&gt;&lt;span style=&quot;color: rgb(204, 204, 204); font-family: Consolas, &amp;quot;Courier New&amp;quot;, monospace; font-size: 14px;&quot;&gt; &lt;/span&gt;&lt;span style=&quot;font-family: Consolas, &amp;quot;Courier New&amp;quot;, monospace; font-size: 14px; color: rgb(212, 212, 212);&quot;&gt;&amp;lt;=&lt;/span&gt;&lt;span style=&quot;color: rgb(204, 204, 204); font-family: Consolas, &amp;quot;Courier New&amp;quot;, monospace; font-size: 14px;&quot;&gt; &lt;/span&gt;&lt;span style=&quot;font-family: Consolas, &amp;quot;Courier New&amp;quot;, monospace; font-size: 14px; color: rgb(181, 206, 168);&quot;&gt;72&lt;/span&gt;&lt;span style=&quot;color: rgb(204, 204, 204); font-family: Consolas, &amp;quot;Courier New&amp;quot;, monospace; font-size: 14px;&quot;&gt;&amp;nbsp;&lt;/span&gt;&lt;span style=&quot;font-family: Consolas, &amp;quot;Courier New&amp;quot;, monospace; font-size: 14px; color: rgb(212, 212, 212);&quot;&gt;&amp;amp;&amp;amp;&lt;/span&gt;&lt;span style=&quot;color: rgb(204, 204, 204); font-family: Consolas, &amp;quot;Courier New&amp;quot;, monospace; font-size: 14px;&quot;&gt; &lt;/span&gt;&lt;span style=&quot;font-family: Consolas, &amp;quot;Courier New&amp;quot;, monospace; font-size: 14px; color: rgb(156, 220, 254);&quot;&gt;grade&lt;/span&gt;&lt;span style=&quot;color: rgb(204, 204, 204); font-family: Consolas, &amp;quot;Courier New&amp;quot;, monospace; font-size: 14px;&quot;&gt; &lt;/span&gt;&lt;span style=&quot;font-family: Consolas, &amp;quot;Courier New&amp;quot;, monospace; font-size: 14px; color: rgb(212, 212, 212);&quot;&gt;&amp;gt;&lt;/span&gt;&lt;span style=&quot;color: rgb(204, 204, 204); font-family: Consolas, &amp;quot;Courier New&amp;quot;, monospace; font-size: 14px;&quot;&gt;&amp;nbsp;&lt;/span&gt;&lt;span style=&quot;font-family: Consolas, &amp;quot;Courier New&amp;quot;, monospace; font-size: 14px;&quot;&gt;&lt;font color=&quot;#b5cea8&quot;&gt;69&lt;/font&gt;&lt;/span&gt;?" style="rhombus;whiteSpace=wrap;html=1;fontColor=#FFFFFF;labelBackgroundColor=none;" vertex="1" parent="1">
                    <mxGeometry x="-60" y="2270" width="150" height="150" as="geometry"/>
                </mxCell>
                <mxCell id="240" style="edgeStyle=none;html=1;exitX=0.5;exitY=1;exitDx=0;exitDy=0;entryX=0.5;entryY=0;entryDx=0;entryDy=0;" edge="1" parent="1" source="203" target="231">
                    <mxGeometry relative="1" as="geometry">
                        <Array as="points">
                            <mxPoint x="170" y="3020"/>
                            <mxPoint y="3020"/>
                        </Array>
                    </mxGeometry>
                </mxCell>
                <mxCell id="203" value="Print&amp;nbsp;&lt;span style=&quot;color: rgb(206, 145, 120); font-family: Consolas, &amp;quot;Courier New&amp;quot;, monospace; font-size: 14px;&quot;&gt;&quot;C-&quot;&lt;/span&gt;" style="shape=parallelogram;perimeter=parallelogramPerimeter;whiteSpace=wrap;html=1;fixedSize=1;fontColor=#FFFFFF;labelBackgroundColor=none;" vertex="1" parent="1">
                    <mxGeometry x="90" y="2420" width="150" height="60" as="geometry"/>
                </mxCell>
                <mxCell id="239" style="edgeStyle=none;html=1;exitX=0.5;exitY=1;exitDx=0;exitDy=0;entryX=0.5;entryY=0;entryDx=0;entryDy=0;" edge="1" parent="1" source="204" target="231">
                    <mxGeometry relative="1" as="geometry">
                        <Array as="points">
                            <mxPoint x="310" y="3040"/>
                            <mxPoint y="3040"/>
                        </Array>
                    </mxGeometry>
                </mxCell>
                <mxCell id="204" value="Print&amp;nbsp;&lt;span style=&quot;color: rgb(206, 145, 120); font-family: Consolas, &amp;quot;Courier New&amp;quot;, monospace; font-size: 14px;&quot;&gt;&quot;C&quot;&lt;/span&gt;" style="shape=parallelogram;perimeter=parallelogramPerimeter;whiteSpace=wrap;html=1;fixedSize=1;fontColor=#FFFFFF;labelBackgroundColor=none;" vertex="1" parent="1">
                    <mxGeometry x="240" y="2270" width="150" height="60" as="geometry"/>
                </mxCell>
                <mxCell id="238" style="edgeStyle=none;html=1;exitX=0.5;exitY=1;exitDx=0;exitDy=0;entryX=0.5;entryY=0;entryDx=0;entryDy=0;" edge="1" parent="1" source="205" target="231">
                    <mxGeometry relative="1" as="geometry">
                        <Array as="points">
                            <mxPoint x="465" y="3060"/>
                            <mxPoint y="3060"/>
                        </Array>
                    </mxGeometry>
                </mxCell>
                <mxCell id="205" value="Print&amp;nbsp;&lt;span style=&quot;color: rgb(206, 145, 120); font-family: Consolas, &amp;quot;Courier New&amp;quot;, monospace; font-size: 14px;&quot;&gt;&quot;C+&quot;&lt;/span&gt;" style="shape=parallelogram;perimeter=parallelogramPerimeter;whiteSpace=wrap;html=1;fixedSize=1;fontColor=#FFFFFF;labelBackgroundColor=none;" vertex="1" parent="1">
                    <mxGeometry x="405" y="2120" width="120" height="60" as="geometry"/>
                </mxCell>
                <mxCell id="237" style="edgeStyle=none;html=1;exitX=0.5;exitY=1;exitDx=0;exitDy=0;entryX=0.5;entryY=0;entryDx=0;entryDy=0;" edge="1" parent="1" source="206" target="231">
                    <mxGeometry relative="1" as="geometry">
                        <Array as="points">
                            <mxPoint x="615" y="3080"/>
                            <mxPoint y="3080"/>
                        </Array>
                    </mxGeometry>
                </mxCell>
                <mxCell id="206" value="Print&amp;nbsp;&lt;span style=&quot;color: rgb(206, 145, 120); font-family: Consolas, &amp;quot;Courier New&amp;quot;, monospace; font-size: 14px;&quot;&gt;&quot;B-&quot;&lt;/span&gt;" style="shape=parallelogram;perimeter=parallelogramPerimeter;whiteSpace=wrap;html=1;fixedSize=1;fontColor=#FFFFFF;labelBackgroundColor=none;" vertex="1" parent="1">
                    <mxGeometry x="550" y="1970" width="130" height="60" as="geometry"/>
                </mxCell>
                <mxCell id="236" style="edgeStyle=none;html=1;exitX=0.5;exitY=1;exitDx=0;exitDy=0;entryX=0.5;entryY=0;entryDx=0;entryDy=0;" edge="1" parent="1" source="207" target="231">
                    <mxGeometry relative="1" as="geometry">
                        <Array as="points">
                            <mxPoint x="760" y="3100"/>
                            <mxPoint y="3100"/>
                        </Array>
                    </mxGeometry>
                </mxCell>
                <mxCell id="207" value="Print&amp;nbsp;&lt;span style=&quot;color: rgb(206, 145, 120); font-family: Consolas, &amp;quot;Courier New&amp;quot;, monospace; font-size: 14px;&quot;&gt;&quot;B&quot;&lt;/span&gt;" style="shape=parallelogram;perimeter=parallelogramPerimeter;whiteSpace=wrap;html=1;fixedSize=1;fontColor=#FFFFFF;labelBackgroundColor=none;" vertex="1" parent="1">
                    <mxGeometry x="700" y="1820" width="130" height="60" as="geometry"/>
                </mxCell>
                <mxCell id="235" style="edgeStyle=none;html=1;exitX=0.5;exitY=1;exitDx=0;exitDy=0;entryX=0.5;entryY=0;entryDx=0;entryDy=0;" edge="1" parent="1" source="208" target="231">
                    <mxGeometry relative="1" as="geometry">
                        <Array as="points">
                            <mxPoint x="915" y="3120"/>
                            <mxPoint y="3120"/>
                        </Array>
                    </mxGeometry>
                </mxCell>
                <mxCell id="208" value="Print&amp;nbsp;&lt;span style=&quot;color: rgb(206, 145, 120); font-family: Consolas, &amp;quot;Courier New&amp;quot;, monospace; font-size: 14px;&quot;&gt;&quot;B+&quot;&lt;/span&gt;" style="shape=parallelogram;perimeter=parallelogramPerimeter;whiteSpace=wrap;html=1;fixedSize=1;fontColor=#FFFFFF;labelBackgroundColor=none;" vertex="1" parent="1">
                    <mxGeometry x="850" y="1670" width="130" height="60" as="geometry"/>
                </mxCell>
                <mxCell id="234" style="edgeStyle=none;html=1;exitX=0.5;exitY=1;exitDx=0;exitDy=0;entryX=0.5;entryY=0;entryDx=0;entryDy=0;" edge="1" parent="1" source="209" target="231">
                    <mxGeometry relative="1" as="geometry">
                        <Array as="points">
                            <mxPoint x="1060" y="3140"/>
                            <mxPoint y="3140"/>
                        </Array>
                    </mxGeometry>
                </mxCell>
                <mxCell id="209" value="Print&amp;nbsp;&lt;span style=&quot;color: rgb(206, 145, 120); font-family: Consolas, &amp;quot;Courier New&amp;quot;, monospace; font-size: 14px;&quot;&gt;&quot;A&quot;&lt;/span&gt;" style="shape=parallelogram;perimeter=parallelogramPerimeter;whiteSpace=wrap;html=1;fixedSize=1;fontColor=#FFFFFF;labelBackgroundColor=none;" vertex="1" parent="1">
                    <mxGeometry x="980" y="1520" width="170" height="60" as="geometry"/>
                </mxCell>
                <mxCell id="215" value="" style="edgeStyle=none;html=1;entryX=0.5;entryY=0;entryDx=0;entryDy=0;exitX=0;exitY=0.5;exitDx=0;exitDy=0;" edge="1" parent="1" source="211" target="214">
                    <mxGeometry relative="1" as="geometry">
                        <Array as="points">
                            <mxPoint x="-285" y="2495"/>
                        </Array>
                    </mxGeometry>
                </mxCell>
                <mxCell id="218" value="False" style="edgeLabel;html=1;align=center;verticalAlign=middle;resizable=0;points=[];" vertex="1" connectable="0" parent="215">
                    <mxGeometry x="-0.2904" y="-1" relative="1" as="geometry">
                        <mxPoint x="13" y="1" as="offset"/>
                    </mxGeometry>
                </mxCell>
                <mxCell id="227" value="" style="edgeStyle=none;html=1;entryX=0.5;entryY=0;entryDx=0;entryDy=0;exitX=1;exitY=0.5;exitDx=0;exitDy=0;" edge="1" parent="1" source="211" target="226">
                    <mxGeometry relative="1" as="geometry">
                        <Array as="points">
                            <mxPoint y="2495"/>
                        </Array>
                    </mxGeometry>
                </mxCell>
                <mxCell id="211" value="&lt;span style=&quot;font-family: Consolas, &amp;quot;Courier New&amp;quot;, monospace; font-size: 14px; color: rgb(156, 220, 254);&quot;&gt;grade&lt;/span&gt;&lt;span style=&quot;color: rgb(204, 204, 204); font-family: Consolas, &amp;quot;Courier New&amp;quot;, monospace; font-size: 14px;&quot;&gt; &lt;/span&gt;&lt;span style=&quot;font-family: Consolas, &amp;quot;Courier New&amp;quot;, monospace; font-size: 14px; color: rgb(212, 212, 212);&quot;&gt;&amp;lt;=&lt;/span&gt;&lt;span style=&quot;color: rgb(204, 204, 204); font-family: Consolas, &amp;quot;Courier New&amp;quot;, monospace; font-size: 14px;&quot;&gt; &lt;/span&gt;&lt;span style=&quot;font-family: Consolas, &amp;quot;Courier New&amp;quot;, monospace; font-size: 14px; color: rgb(181, 206, 168);&quot;&gt;69&lt;/span&gt;&lt;span style=&quot;color: rgb(204, 204, 204); font-family: Consolas, &amp;quot;Courier New&amp;quot;, monospace; font-size: 14px;&quot;&gt;&amp;nbsp;&lt;/span&gt;&lt;span style=&quot;font-family: Consolas, &amp;quot;Courier New&amp;quot;, monospace; font-size: 14px; color: rgb(212, 212, 212);&quot;&gt;&amp;amp;&amp;amp;&lt;/span&gt;&lt;span style=&quot;color: rgb(204, 204, 204); font-family: Consolas, &amp;quot;Courier New&amp;quot;, monospace; font-size: 14px;&quot;&gt; &lt;/span&gt;&lt;span style=&quot;font-family: Consolas, &amp;quot;Courier New&amp;quot;, monospace; font-size: 14px; color: rgb(156, 220, 254);&quot;&gt;grade&lt;/span&gt;&lt;span style=&quot;color: rgb(204, 204, 204); font-family: Consolas, &amp;quot;Courier New&amp;quot;, monospace; font-size: 14px;&quot;&gt; &lt;/span&gt;&lt;span style=&quot;font-family: Consolas, &amp;quot;Courier New&amp;quot;, monospace; font-size: 14px; color: rgb(212, 212, 212);&quot;&gt;&amp;gt;&lt;/span&gt;&lt;span style=&quot;color: rgb(204, 204, 204); font-family: Consolas, &amp;quot;Courier New&amp;quot;, monospace; font-size: 14px;&quot;&gt;&amp;nbsp;&lt;/span&gt;&lt;span style=&quot;font-family: Consolas, &amp;quot;Courier New&amp;quot;, monospace; font-size: 14px;&quot;&gt;&lt;font color=&quot;#b5cea8&quot;&gt;66&lt;/font&gt;&lt;/span&gt;?" style="rhombus;whiteSpace=wrap;html=1;fontColor=#FFFFFF;labelBackgroundColor=none;" vertex="1" parent="1">
                    <mxGeometry x="-210" y="2420" width="150" height="150" as="geometry"/>
                </mxCell>
                <mxCell id="217" value="" style="edgeStyle=none;html=1;entryX=0.5;entryY=0;entryDx=0;entryDy=0;exitX=0;exitY=0.5;exitDx=0;exitDy=0;" edge="1" parent="1" source="214" target="216">
                    <mxGeometry relative="1" as="geometry">
                        <Array as="points">
                            <mxPoint x="-435" y="2645"/>
                        </Array>
                    </mxGeometry>
                </mxCell>
                <mxCell id="219" value="False" style="edgeLabel;html=1;align=center;verticalAlign=middle;resizable=0;points=[];" vertex="1" connectable="0" parent="217">
                    <mxGeometry x="-0.2311" y="2" relative="1" as="geometry">
                        <mxPoint x="18" y="-2" as="offset"/>
                    </mxGeometry>
                </mxCell>
                <mxCell id="229" value="" style="edgeStyle=none;html=1;entryX=0.5;entryY=0;entryDx=0;entryDy=0;exitX=1;exitY=0.5;exitDx=0;exitDy=0;" edge="1" parent="1" source="214" target="228">
                    <mxGeometry relative="1" as="geometry">
                        <Array as="points">
                            <mxPoint x="-150" y="2645"/>
                        </Array>
                    </mxGeometry>
                </mxCell>
                <mxCell id="214" value="&lt;span style=&quot;font-family: Consolas, &amp;quot;Courier New&amp;quot;, monospace; font-size: 14px; color: rgb(156, 220, 254);&quot;&gt;grade&lt;/span&gt;&lt;span style=&quot;color: rgb(204, 204, 204); font-family: Consolas, &amp;quot;Courier New&amp;quot;, monospace; font-size: 14px;&quot;&gt; &lt;/span&gt;&lt;span style=&quot;font-family: Consolas, &amp;quot;Courier New&amp;quot;, monospace; font-size: 14px; color: rgb(212, 212, 212);&quot;&gt;&amp;lt;=&lt;/span&gt;&lt;span style=&quot;color: rgb(204, 204, 204); font-family: Consolas, &amp;quot;Courier New&amp;quot;, monospace; font-size: 14px;&quot;&gt; &lt;/span&gt;&lt;span style=&quot;font-family: Consolas, &amp;quot;Courier New&amp;quot;, monospace; font-size: 14px; color: rgb(181, 206, 168);&quot;&gt;66&lt;/span&gt;&lt;span style=&quot;color: rgb(204, 204, 204); font-family: Consolas, &amp;quot;Courier New&amp;quot;, monospace; font-size: 14px;&quot;&gt;&amp;nbsp;&lt;/span&gt;&lt;span style=&quot;font-family: Consolas, &amp;quot;Courier New&amp;quot;, monospace; font-size: 14px; color: rgb(212, 212, 212);&quot;&gt;&amp;amp;&amp;amp;&lt;/span&gt;&lt;span style=&quot;color: rgb(204, 204, 204); font-family: Consolas, &amp;quot;Courier New&amp;quot;, monospace; font-size: 14px;&quot;&gt; &lt;/span&gt;&lt;span style=&quot;font-family: Consolas, &amp;quot;Courier New&amp;quot;, monospace; font-size: 14px; color: rgb(156, 220, 254);&quot;&gt;grade&lt;/span&gt;&lt;span style=&quot;color: rgb(204, 204, 204); font-family: Consolas, &amp;quot;Courier New&amp;quot;, monospace; font-size: 14px;&quot;&gt; &lt;/span&gt;&lt;span style=&quot;font-family: Consolas, &amp;quot;Courier New&amp;quot;, monospace; font-size: 14px; color: rgb(212, 212, 212);&quot;&gt;&amp;gt;&lt;/span&gt;&lt;span style=&quot;color: rgb(204, 204, 204); font-family: Consolas, &amp;quot;Courier New&amp;quot;, monospace; font-size: 14px;&quot;&gt;&amp;nbsp;&lt;/span&gt;&lt;span style=&quot;font-family: Consolas, &amp;quot;Courier New&amp;quot;, monospace; font-size: 14px;&quot;&gt;&lt;font color=&quot;#b5cea8&quot;&gt;62&lt;/font&gt;&lt;/span&gt;?" style="rhombus;whiteSpace=wrap;html=1;fontColor=#FFFFFF;labelBackgroundColor=none;" vertex="1" parent="1">
                    <mxGeometry x="-360" y="2570" width="150" height="150" as="geometry"/>
                </mxCell>
                <mxCell id="221" value="" style="edgeStyle=none;html=1;exitX=0;exitY=0.5;exitDx=0;exitDy=0;entryX=0.584;entryY=0.017;entryDx=0;entryDy=0;entryPerimeter=0;" edge="1" parent="1" source="216" target="220">
                    <mxGeometry relative="1" as="geometry">
                        <Array as="points">
                            <mxPoint x="-560" y="2795"/>
                        </Array>
                    </mxGeometry>
                </mxCell>
                <mxCell id="222" value="False" style="edgeLabel;html=1;align=center;verticalAlign=middle;resizable=0;points=[];" vertex="1" connectable="0" parent="221">
                    <mxGeometry x="-0.4022" y="-1" relative="1" as="geometry">
                        <mxPoint x="13" y="1" as="offset"/>
                    </mxGeometry>
                </mxCell>
                <mxCell id="224" value="" style="edgeStyle=none;html=1;entryX=0.5;entryY=0;entryDx=0;entryDy=0;exitX=1;exitY=0.5;exitDx=0;exitDy=0;" edge="1" parent="1" source="216" target="223">
                    <mxGeometry relative="1" as="geometry">
                        <Array as="points">
                            <mxPoint x="-300" y="2795"/>
                        </Array>
                    </mxGeometry>
                </mxCell>
                <mxCell id="225" value="True" style="edgeLabel;html=1;align=center;verticalAlign=middle;resizable=0;points=[];" vertex="1" connectable="0" parent="224">
                    <mxGeometry x="-0.3728" y="-3" relative="1" as="geometry">
                        <mxPoint x="-12" y="-3" as="offset"/>
                    </mxGeometry>
                </mxCell>
                <mxCell id="216" value="&lt;span style=&quot;font-family: Consolas, &amp;quot;Courier New&amp;quot;, monospace; font-size: 14px; color: rgb(156, 220, 254);&quot;&gt;grade&lt;/span&gt;&lt;span style=&quot;color: rgb(204, 204, 204); font-family: Consolas, &amp;quot;Courier New&amp;quot;, monospace; font-size: 14px;&quot;&gt; &lt;/span&gt;&lt;span style=&quot;font-family: Consolas, &amp;quot;Courier New&amp;quot;, monospace; font-size: 14px; color: rgb(212, 212, 212);&quot;&gt;&amp;lt;=&lt;/span&gt;&lt;span style=&quot;color: rgb(204, 204, 204); font-family: Consolas, &amp;quot;Courier New&amp;quot;, monospace; font-size: 14px;&quot;&gt; &lt;/span&gt;&lt;span style=&quot;font-family: Consolas, &amp;quot;Courier New&amp;quot;, monospace; font-size: 14px; color: rgb(181, 206, 168);&quot;&gt;62&lt;/span&gt;&lt;span style=&quot;color: rgb(204, 204, 204); font-family: Consolas, &amp;quot;Courier New&amp;quot;, monospace; font-size: 14px;&quot;&gt;&amp;nbsp;&lt;/span&gt;&lt;span style=&quot;font-family: Consolas, &amp;quot;Courier New&amp;quot;, monospace; font-size: 14px; color: rgb(212, 212, 212);&quot;&gt;&amp;amp;&amp;amp;&lt;/span&gt;&lt;span style=&quot;color: rgb(204, 204, 204); font-family: Consolas, &amp;quot;Courier New&amp;quot;, monospace; font-size: 14px;&quot;&gt; &lt;/span&gt;&lt;span style=&quot;font-family: Consolas, &amp;quot;Courier New&amp;quot;, monospace; font-size: 14px; color: rgb(156, 220, 254);&quot;&gt;grade&lt;/span&gt;&lt;span style=&quot;color: rgb(204, 204, 204); font-family: Consolas, &amp;quot;Courier New&amp;quot;, monospace; font-size: 14px;&quot;&gt; &lt;/span&gt;&lt;span style=&quot;font-family: Consolas, &amp;quot;Courier New&amp;quot;, monospace; font-size: 14px; color: rgb(212, 212, 212);&quot;&gt;&amp;gt;&lt;/span&gt;&lt;span style=&quot;color: rgb(204, 204, 204); font-family: Consolas, &amp;quot;Courier New&amp;quot;, monospace; font-size: 14px;&quot;&gt;&amp;nbsp;&lt;/span&gt;&lt;span style=&quot;font-family: Consolas, &amp;quot;Courier New&amp;quot;, monospace; font-size: 14px;&quot;&gt;&lt;font color=&quot;#b5cea8&quot;&gt;59&lt;/font&gt;&lt;/span&gt;?" style="rhombus;whiteSpace=wrap;html=1;fontColor=#FFFFFF;labelBackgroundColor=none;" vertex="1" parent="1">
                    <mxGeometry x="-510" y="2720" width="150" height="150" as="geometry"/>
                </mxCell>
                <mxCell id="244" style="edgeStyle=none;html=1;exitX=0.5;exitY=1;exitDx=0;exitDy=0;entryX=0.5;entryY=0;entryDx=0;entryDy=0;" edge="1" parent="1" source="220" target="231">
                    <mxGeometry relative="1" as="geometry">
                        <Array as="points">
                            <mxPoint x="-570" y="3140"/>
                            <mxPoint y="3140"/>
                        </Array>
                    </mxGeometry>
                </mxCell>
                <mxCell id="220" value="Print&amp;nbsp;&lt;span style=&quot;color: rgb(206, 145, 120); font-family: Consolas, &amp;quot;Courier New&amp;quot;, monospace; font-size: 14px;&quot;&gt;&quot;F&quot;&lt;/span&gt;" style="shape=parallelogram;perimeter=parallelogramPerimeter;whiteSpace=wrap;html=1;fixedSize=1;fontColor=#FFFFFF;labelBackgroundColor=none;" vertex="1" parent="1">
                    <mxGeometry x="-630" y="2870" width="120" height="60" as="geometry"/>
                </mxCell>
                <mxCell id="243" style="edgeStyle=none;html=1;exitX=0.5;exitY=1;exitDx=0;exitDy=0;entryX=0.5;entryY=0;entryDx=0;entryDy=0;" edge="1" parent="1" source="223" target="231">
                    <mxGeometry relative="1" as="geometry">
                        <Array as="points">
                            <mxPoint x="-300" y="3120"/>
                            <mxPoint y="3120"/>
                        </Array>
                    </mxGeometry>
                </mxCell>
                <mxCell id="223" value="Print&amp;nbsp;&lt;span style=&quot;color: rgb(206, 145, 120); font-family: Consolas, &amp;quot;Courier New&amp;quot;, monospace; font-size: 14px;&quot;&gt;&quot;D-&quot;&lt;/span&gt;" style="shape=parallelogram;perimeter=parallelogramPerimeter;whiteSpace=wrap;html=1;fixedSize=1;fontColor=#FFFFFF;labelBackgroundColor=none;" vertex="1" parent="1">
                    <mxGeometry x="-360" y="2870" width="120" height="60" as="geometry"/>
                </mxCell>
                <mxCell id="241" style="edgeStyle=none;html=1;exitX=0.5;exitY=1;exitDx=0;exitDy=0;entryX=0.5;entryY=0;entryDx=0;entryDy=0;" edge="1" parent="1" source="226" target="231">
                    <mxGeometry relative="1" as="geometry"/>
                </mxCell>
                <mxCell id="226" value="Print&amp;nbsp;&lt;span style=&quot;color: rgb(206, 145, 120); font-family: Consolas, &amp;quot;Courier New&amp;quot;, monospace; font-size: 14px;&quot;&gt;&quot;D+&quot;&lt;/span&gt;" style="shape=parallelogram;perimeter=parallelogramPerimeter;whiteSpace=wrap;html=1;fixedSize=1;fontColor=#FFFFFF;labelBackgroundColor=none;" vertex="1" parent="1">
                    <mxGeometry x="-60" y="2570" width="120" height="60" as="geometry"/>
                </mxCell>
                <mxCell id="242" style="edgeStyle=none;html=1;exitX=0.5;exitY=1;exitDx=0;exitDy=0;entryX=0.5;entryY=0;entryDx=0;entryDy=0;" edge="1" parent="1" source="228" target="231">
                    <mxGeometry relative="1" as="geometry">
                        <Array as="points">
                            <mxPoint x="-150" y="3100"/>
                            <mxPoint y="3100"/>
                        </Array>
                    </mxGeometry>
                </mxCell>
                <mxCell id="228" value="Print&amp;nbsp;&lt;span style=&quot;color: rgb(206, 145, 120); font-family: Consolas, &amp;quot;Courier New&amp;quot;, monospace; font-size: 14px;&quot;&gt;&quot;D&quot;&lt;/span&gt;" style="shape=parallelogram;perimeter=parallelogramPerimeter;whiteSpace=wrap;html=1;fixedSize=1;fontColor=#FFFFFF;labelBackgroundColor=none;" vertex="1" parent="1">
                    <mxGeometry x="-210" y="2720" width="120" height="60" as="geometry"/>
                </mxCell>
                <mxCell id="231" value="End" style="ellipse;whiteSpace=wrap;html=1;labelBackgroundColor=none;" vertex="1" parent="1">
                    <mxGeometry x="-60" y="3200" width="120" height="80" as="geometry"/>
                </mxCell>
            </root>
        </mxGraphModel>
    </diagram>
</mxfile>